<svg width="555" height="437" viewBox="0 0 555 437" fill="none" xmlns="http://www.w3.org/2000/svg">
<path d="M0.9263 360.818C28.7647 348.401 60.3684 350.003 89.5687 356.172C120.451 362.701 150.172 374.077 181.335 379.364C198.599 382.288 216.224 383.33 233.608 380.606C234.369 380.486 234.048 379.324 233.287 379.444C201.003 384.451 168.718 376.44 137.835 367.708C108.275 359.336 78.3532 350.044 47.2703 350.284C31.1681 350.404 15.1059 353.208 0.32547 359.777C-0.395526 360.097 0.205304 361.139 0.9263 360.818Z" fill="#E8E8E8"/>
<path d="M156.822 371.153C194.554 371.914 231.084 361.459 267.975 355.251C278.75 353.448 289.605 352.006 300.54 351.285C301.301 351.245 301.301 350.043 300.54 350.083C262.768 352.567 226.358 363.863 188.866 368.269C178.251 369.51 167.557 370.191 156.862 369.991C156.021 369.951 156.021 371.153 156.822 371.153Z" fill="#E8E8E8"/>
<path d="M333.185 357.694C346.604 354.81 360.503 354.329 374.082 356.412C386.579 358.335 398.555 362.461 410.372 366.867C422.028 371.193 433.604 375.799 445.7 378.883C458.198 382.048 470.895 382.849 483.793 382.849C499.014 382.849 514.355 382.248 529.296 385.613C530.057 385.773 530.377 384.611 529.616 384.451C503.22 378.523 475.862 384.531 449.466 378.523C424.832 372.915 402.321 360.298 377.406 355.771C362.666 353.088 347.525 353.408 332.905 356.532C332.104 356.693 332.424 357.854 333.185 357.694Z" fill="#E8E8E8"/>
<path d="M114.403 203.681C110.959 202.64 104.189 199.796 106.713 194.989C108.515 191.544 113.883 191.264 117.207 191.384C128.423 191.705 139.638 192.666 150.854 191.745C161.388 190.863 171.442 187.859 181.696 185.456C192.111 182.972 203.126 181.17 213.62 184.214C218.227 185.536 222.513 187.739 227.039 189.261C229.202 189.982 231.445 190.543 233.728 190.783C236.452 191.064 239.176 190.663 241.859 190.543C244.623 190.423 247.467 190.503 249.83 192.145C251.993 193.627 253.796 196.431 252.394 199.035C250.391 202.8 244.543 201.758 241.178 201.037C231.205 198.955 221.151 198.314 211.017 199.676C205.649 200.397 200.402 201.718 195.275 203.361C189.747 205.123 184.38 206.685 178.492 205.884C173.004 205.123 167.757 203.361 162.189 203.16C156.622 202.92 151.094 203.641 145.606 204.362C134.952 205.804 123.576 207.647 113.602 202.479C112.921 202.119 112.32 203.16 113.001 203.521C122.334 208.368 132.869 207.246 142.963 205.924C148.25 205.203 153.577 204.442 158.945 204.322C164.833 204.202 170.321 205.564 176.048 206.685C181.897 207.807 187.184 207.206 192.872 205.444C198.519 203.681 204.087 201.959 209.935 201.077C215.984 200.156 222.112 199.916 228.2 200.356C233.608 200.717 238.775 202.159 244.102 202.76C247.267 203.12 251.312 203 253.275 200.036C255.518 196.631 253.115 192.666 250.031 190.783C245.344 187.939 239.536 189.942 234.449 189.622C228.841 189.261 223.674 186.658 218.507 184.655C207.772 180.489 196.797 181.01 185.702 183.373C173.966 185.856 162.55 189.662 150.533 190.623C143.604 191.184 136.594 191.064 129.664 190.783C126.059 190.623 122.414 190.463 118.809 190.303C116.566 190.222 114.363 190.182 112.16 190.623C108.756 191.304 104.87 193.307 105.11 197.352C105.391 201.798 110.518 203.841 114.123 204.923C114.804 205.083 115.124 203.921 114.403 203.681Z" fill="#E8E8E8"/>
<path d="M410.012 55.9173C406.567 55.4367 400.919 54.195 399.918 50.2695C398.476 44.822 406.246 43.0996 410.012 42.4187C421.027 40.5361 432.322 42.2585 443.418 42.2585C465.408 42.2184 487.078 38.0527 508.948 36.4905C519.883 35.6894 530.898 35.5692 541.794 36.9712C544.277 37.2916 546.881 37.5319 549.284 38.2529C550.285 38.5333 551.407 39.014 552.168 39.735C554.01 41.5375 552.208 43.1797 550.526 44.061C546.2 46.3441 541.273 47.2654 536.426 47.4657C526.733 47.9063 517.079 45.9035 507.386 46.264C502.86 46.4242 498.414 47.1853 494.128 48.7474C489.121 50.59 484.474 53.1936 479.427 54.9159C473.579 56.9187 467.411 57.9201 461.202 57.9201C454.914 57.9201 448.705 56.9588 442.496 56.2378C429.919 54.7958 417.302 54.8358 404.764 56.5182C404.003 56.6383 404.003 57.84 404.764 57.7198C417.021 56.0776 429.438 55.9574 441.735 57.3593C447.824 58.0403 453.912 59.0016 460.081 59.1218C465.769 59.2419 471.496 58.5209 476.984 56.9588C482.592 55.3566 487.719 52.5927 493.126 50.4297C498.374 48.3469 503.781 47.4256 509.389 47.4256C519.723 47.3455 530.097 49.6687 540.432 48.3068C542.955 47.9864 545.398 47.4256 547.802 46.5444C549.644 45.8634 552.128 45.0223 553.45 43.4601C555.933 40.456 552.328 37.8123 549.644 37.0513C544.357 35.4891 538.389 35.2087 532.901 34.8883C526.933 34.5278 520.965 34.5678 514.996 34.8482C490.843 36.0098 466.97 41.0568 442.737 40.9767C435.847 40.9767 428.958 40.3358 422.068 40.2958C416.22 40.2557 409.531 40.3759 404.043 42.659C400.598 44.101 397.234 47.4657 399.157 51.4311C400.959 55.1563 406.046 56.438 409.731 56.9588C410.452 57.1991 410.773 56.0375 410.012 55.9173Z" fill="#E8E8E8"/>
<path d="M22.6362 110.593C56.0423 96.0927 92.6529 109.631 123.455 124.171C139.157 131.582 154.618 139.513 171.001 145.361C187.063 151.089 203.766 155.054 220.71 157.337C254.717 161.944 289.525 159.901 322.971 152.41C358.019 144.56 391.225 130.3 425.993 121.368C462.163 112.075 499.975 110.072 536.866 116.04C541.353 116.761 545.799 117.602 550.245 118.564C551.006 118.724 551.326 117.562 550.565 117.402C514.756 109.792 477.544 109.431 441.655 116.561C405.765 123.691 371.999 138.271 336.79 147.764C302.623 156.977 266.934 160.702 231.645 157.377C214.101 155.735 196.717 152.33 179.893 147.043C162.509 141.596 146.207 133.665 129.824 125.814C100.223 111.594 66.8172 97.1742 33.331 105.626C29.4456 106.587 25.7205 107.909 22.0354 109.511C21.3544 109.872 21.9553 110.913 22.6362 110.593Z" fill="#E8E8E8"/>
<path d="M159.705 96.2528C198.839 118.083 245.424 119.725 288.844 113.637C337.992 106.747 385.337 90.5249 434.565 84.1962C461.963 80.6713 489.921 80.2307 517.039 86.239C517.8 86.3992 518.12 85.2376 517.359 85.0774C469.413 74.5028 420.225 83.8357 373.28 94.7708C327.016 105.546 280.232 118.123 232.286 115.039C207.251 113.437 182.337 107.468 160.306 95.2114C159.665 94.8108 159.065 95.8523 159.705 96.2528Z" fill="#E8E8E8"/>
<path d="M42.8642 21.4696C76.5107 13.4585 112.4 16.6229 144.124 30.442C159.706 37.2113 174.326 46.0235 189.627 53.3536C205.048 60.7238 221.15 65.8108 238.134 68.094C257.561 70.6976 277.228 70.257 296.695 68.9752C297.456 68.9351 297.456 67.7335 296.695 67.7735C279.11 68.9351 261.366 69.4158 243.822 67.5733C226.037 65.6907 209.054 61.0442 192.831 53.5539C177.41 46.384 162.83 37.5718 147.329 30.6022C132.107 23.6326 115.965 19.0262 99.3422 17.0635C80.3961 14.7804 61.0894 15.9019 42.5438 20.308C41.7828 20.4682 42.1032 21.6298 42.8642 21.4696Z" fill="#E8E8E8"/>
<path d="M384.136 264.245C380.611 263.524 374.843 261.721 374.562 257.355C374.402 254.672 376.645 252.709 379.009 251.988C381.852 251.067 384.857 251.908 387.62 252.709C392.667 254.191 397.754 255.392 403.042 255.593C407.968 255.793 412.855 255.072 417.622 253.79C422.749 252.428 427.756 250.586 432.843 249.144C438.21 247.622 443.698 246.821 449.306 246.741C460 246.58 470.575 248.503 481.23 248.944C486.557 249.144 491.804 248.863 497.052 248.062C502.739 247.181 508.547 245.859 514.355 246.54C518.521 247.021 525.21 249.825 523.849 255.192C522.647 259.879 515.998 262.522 511.912 263.844C491.404 270.493 470.255 259.438 449.466 262.362C437.489 264.044 426.194 269.091 414.097 270.053C408.569 270.493 402.881 270.133 397.634 268.17C392.828 266.328 388.502 262.322 383.014 263.283C382.253 263.404 382.573 264.565 383.334 264.445C386.619 263.884 389.503 265.446 392.267 266.968C394.51 268.17 396.753 269.292 399.196 270.013C404.203 271.535 409.571 271.735 414.778 271.254C426.234 270.173 437.009 265.647 448.344 263.804C460.842 261.801 473.139 264.685 485.476 266.328C495.529 267.649 506.304 267.97 515.757 263.764C519.362 262.162 524.169 259.598 525.09 255.352C525.931 251.547 523.007 248.503 519.843 246.941C515.157 244.658 509.509 245.098 504.542 245.779C498.494 246.58 492.605 247.862 486.477 247.942C474.54 248.142 462.764 245.699 450.868 245.659C445.18 245.659 439.532 246.3 434.004 247.742C428.517 249.184 423.19 251.187 417.742 252.669C411.013 254.471 404.243 255.032 397.354 253.951C393.909 253.39 390.665 252.428 387.34 251.467C384.857 250.746 382.173 250.145 379.569 250.706C375.684 251.547 372.159 255.232 373.881 259.358C375.444 263.123 380.21 264.765 383.895 265.527C384.536 265.567 384.857 264.405 384.136 264.245Z" fill="#E8E8E8"/>
<path d="M204.407 422.423C219.388 418.818 234.048 413.891 248.188 407.763C255.518 404.559 262.688 400.914 270.499 398.991C277.989 397.108 285.76 396.548 293.49 396.748C302.423 396.948 311.275 398.15 320.087 399.552C320.848 399.672 321.169 398.51 320.408 398.39C305.387 396.027 289.926 394.104 274.825 396.828C267.054 398.23 259.924 401.194 252.794 404.438C245.304 407.843 237.733 410.927 229.963 413.651C221.471 416.615 212.859 419.179 204.087 421.262C203.326 421.422 203.646 422.583 204.407 422.423Z" fill="#161616"/>
<path d="M299.058 397.188C305.787 397.028 312.436 396.067 318.925 394.184C325.534 392.302 332.063 389.658 339.073 390.339C342.638 390.659 346.123 391.661 349.568 392.542C353.173 393.463 356.737 394.384 360.342 395.306C367.272 397.068 374.162 398.831 381.091 400.593C381.852 400.793 382.173 399.632 381.412 399.431C374.242 397.589 367.072 395.786 359.902 393.944C353.333 392.262 346.603 390.018 339.874 389.217C333.265 388.456 327.016 390.499 320.768 392.422C313.678 394.585 306.468 395.826 299.098 396.027C298.297 395.987 298.297 397.188 299.058 397.188Z" fill="#161616"/>
<path d="M369.195 403.397C384.936 399.912 401.479 396.908 417.461 400.593C425.392 402.436 432.843 405.961 440.253 409.205C448.024 412.65 455.834 416.055 463.605 419.499C464.326 419.82 464.927 418.778 464.206 418.458C452.029 413.09 439.972 407.282 427.555 402.516C415.539 397.909 403.041 396.988 390.304 398.43C383.094 399.271 375.924 400.673 368.834 402.276C368.113 402.396 368.434 403.557 369.195 403.397Z" fill="#161616"/>
<path d="M226.879 436.323C231.004 435.602 235.17 434.881 239.296 434.16C243.421 433.439 247.587 432.517 251.753 432.077C255.598 431.676 259.524 432.357 263.329 432.718C267.535 433.158 271.781 433.559 275.986 433.999C276.748 434.079 276.748 432.878 275.986 432.798C271.781 432.357 267.535 431.957 263.329 431.516C259.243 431.115 255.118 430.434 250.992 430.955C242.821 431.957 234.689 433.759 226.558 435.161C225.797 435.321 226.118 436.483 226.879 436.323Z" fill="#161616"/>
<path d="M116.246 255.673C118.989 255.673 121.213 253.449 121.213 250.706C121.213 247.963 118.989 245.739 116.246 245.739C113.503 245.739 111.279 247.963 111.279 250.706C111.279 253.449 113.503 255.673 116.246 255.673Z" fill="#FF9BC5"/>
<path d="M129.664 266.568C131.102 266.568 132.268 265.402 132.268 263.964C132.268 262.527 131.102 261.361 129.664 261.361C128.226 261.361 127.061 262.527 127.061 263.964C127.061 265.402 128.226 266.568 129.664 266.568Z" fill="#FF9BC5"/>
<path d="M409.01 12.2569C412.394 12.2569 415.138 9.51312 415.138 6.12846C415.138 2.74381 412.394 0 409.01 0C405.625 0 402.881 2.74381 402.881 6.12846C402.881 9.51312 405.625 12.2569 409.01 12.2569Z" fill="#FF9BC5"/>
<path d="M423.27 19.1864C425.194 19.1864 426.755 17.6262 426.755 15.7016C426.755 13.777 425.194 12.2168 423.27 12.2168C421.345 12.2168 419.785 13.777 419.785 15.7016C419.785 17.6262 421.345 19.1864 423.27 19.1864Z" fill="#FF9BC5"/>
<path d="M420.946 17.7445C424.154 17.7445 426.754 15.1441 426.754 11.9364C426.754 8.72876 424.154 6.12842 420.946 6.12842C417.739 6.12842 415.138 8.72876 415.138 11.9364C415.138 15.1441 417.739 17.7445 420.946 17.7445Z" fill="#5CC6B3"/>
<path d="M407.047 316.637C411.383 316.637 414.898 313.122 414.898 308.786C414.898 304.451 411.383 300.936 407.047 300.936C402.711 300.936 399.196 304.451 399.196 308.786C399.196 313.122 402.711 316.637 407.047 316.637Z" fill="#5CC6B3"/>
<path d="M122.014 16.1422C124.779 16.1422 127.02 13.9006 127.02 11.1353C127.02 8.37009 124.779 6.12842 122.014 6.12842C119.248 6.12842 117.007 8.37009 117.007 11.1353C117.007 13.9006 119.248 16.1422 122.014 16.1422Z" fill="#5CC6B3"/>
<path d="M201.243 358.535C204.628 358.535 207.371 355.791 207.371 352.407C207.371 349.022 204.628 346.278 201.243 346.278C197.858 346.278 195.115 349.022 195.115 352.407C195.115 355.791 197.858 358.535 201.243 358.535Z" fill="#5CC6B3"/>
<path d="M245.464 243.256C244.623 242.896 245.584 241.414 246.025 241.213C246.545 240.973 247.587 241.294 248.147 241.454C249.029 241.734 249.79 242.215 250.671 242.455C251.632 242.736 252.794 242.816 253.715 242.375C256.92 240.733 253.114 235.205 257.801 235.205C260.364 235.205 262.527 239.01 264.65 236.166C265.411 235.165 265.732 233.883 266.132 232.682C266.453 231.64 266.733 230.559 267.454 229.718C268.295 228.756 270.859 227.795 271.139 229.878C271.219 230.639 272.461 230.639 272.341 229.878C272.141 228.436 271.099 227.474 269.617 227.394C267.855 227.274 266.573 228.596 265.852 230.038C265.331 231.039 265.091 232.161 264.73 233.242C264.49 234.003 264.17 235.325 263.489 235.806C262.768 236.287 262.207 235.766 261.606 235.405C260.044 234.364 258.161 233.563 256.279 234.244C254.556 234.885 253.875 236.367 253.956 238.129C253.956 238.65 254.116 239.291 254.076 239.811C253.795 241.654 252.554 241.734 251.272 241.454C249.99 241.173 248.909 240.372 247.587 240.132C246.185 239.852 244.783 240.212 244.142 241.614C243.621 242.816 243.942 244.017 245.143 244.498C245.864 244.698 246.185 243.537 245.464 243.256Z" fill="#5CC6B3"/>
<path d="M266.133 245.179C265.532 244.257 265.532 243.096 266.173 242.175C267.094 240.853 268.376 241.053 269.778 241.253C270.819 241.414 272.101 241.614 272.862 240.693C273.383 240.092 273.302 239.371 273.503 238.69C273.783 237.688 274.424 236.807 275.265 236.206C277.028 234.925 279.511 234.724 281.273 236.086C281.714 236.407 282.235 236.206 282.315 235.646C282.796 231.76 286.641 228.876 290.486 229.557C291.247 229.677 291.568 228.516 290.807 228.396C286.12 227.594 281.674 230.959 281.113 235.646C281.474 235.485 281.794 235.365 282.155 235.205C280.512 233.923 278.43 233.603 276.467 234.284C274.224 235.045 273.182 236.527 272.341 238.61C271.941 239.651 271.46 240.292 270.298 240.132C269.657 240.052 269.057 239.891 268.416 239.851C267.494 239.811 266.693 240.052 265.972 240.652C264.45 241.934 264.05 244.137 265.131 245.82C265.532 246.46 266.573 245.86 266.133 245.179Z" fill="#5CC6B3"/>
<path d="M286.4 25.9556C285.719 25.3147 285.92 24.9142 286.961 24.7139C287.402 24.1131 287.882 23.9929 288.403 24.3935C289.124 24.5537 289.605 25.1946 290.125 25.6752C290.766 26.236 291.327 26.8769 292.048 27.3175C293.049 27.8783 294.291 28.1186 295.333 27.5979C296.614 26.957 296.654 25.6752 297.095 24.4736C298.297 21.2692 302.382 20.9487 304.305 23.6725C304.545 23.9929 305.146 24.1131 305.346 23.6725C306.107 21.87 307.069 19.8272 308.791 18.7457C310.514 17.6642 313.398 17.7843 314.159 20.0274C314.399 20.7484 315.561 20.428 315.32 19.707C314.559 17.544 312.356 16.5827 310.153 16.9432C307.109 17.4639 305.427 20.5081 304.305 23.0716C304.665 23.0716 304.986 23.0716 305.346 23.0716C303.944 21.0689 301.541 19.9874 299.138 20.8686C298.136 21.2291 297.215 21.9501 296.614 22.8714C296.294 23.352 296.094 23.8728 295.893 24.4335C295.773 24.794 295.773 25.2346 295.573 25.5551C295.052 26.4363 293.61 26.7968 292.689 26.2761C290.726 25.1946 288.804 21.7498 286.08 23.1518C284.558 23.9128 284.357 26.0758 285.799 26.9971C286.48 27.3976 287.081 26.3562 286.4 25.9556Z" fill="#FF9BC5"/>
<path d="M312.116 25.6354C311.836 21.6299 316.963 22.9517 319.006 23.9531C320.047 24.4738 321.329 25.4352 322.45 24.5539C322.811 24.2735 322.971 23.873 323.131 23.4724C323.732 22.1506 324.133 21.1893 325.735 20.7086C328.218 19.9876 330.622 21.5498 332.624 22.8316C333.265 23.2321 333.866 22.1907 333.225 21.7901C331.102 20.4683 328.699 18.9862 326.095 19.4269C325.254 19.547 324.413 19.8675 323.732 20.3882C322.691 21.1492 322.49 22.4711 321.449 23.1119C320.448 23.7128 320.047 23.1119 319.046 22.6313C318.525 22.3909 318.004 22.1506 317.443 21.9503C316.402 21.5898 315.28 21.4296 314.199 21.67C312.316 22.1106 310.794 23.6327 310.914 25.6354C310.954 26.3965 312.156 26.3965 312.116 25.6354Z" fill="#FF9BC5"/>
<path d="M428.036 191.544C425.392 185.736 435.406 183.173 436.087 189.261C436.328 191.304 435.206 193.467 433.123 194.028C430.8 194.629 428.317 193.067 427.676 190.823C427.475 190.062 426.314 190.383 426.514 191.144C427.315 194.028 430.479 195.95 433.444 195.189C436.368 194.428 437.81 191.184 437.129 188.38C436.408 185.416 433.323 183.974 430.479 184.735C427.155 185.616 425.593 189.101 426.995 192.225C427.315 192.866 428.357 192.225 428.036 191.544Z" fill="#FF9BC5"/>
<path d="M435.487 196.151C433.324 195.951 432.523 193.067 434.005 191.625C435.246 190.383 437.369 190.463 438.691 191.505C440.053 192.586 441.375 195.751 439.853 197.273C437.85 199.275 435.406 196.031 434.445 194.589C434.005 193.948 432.963 194.549 433.404 195.19C434.806 197.353 438.01 200.757 440.694 198.114C442.817 196.031 441.295 191.825 439.212 190.343C437.089 188.821 433.604 189.342 432.402 191.825C431.201 194.228 432.963 197.112 435.527 197.353C436.248 197.433 436.248 196.231 435.487 196.151Z" fill="#FF9BC5"/>
<path d="M71.624 145.802C73.2262 145.721 74.0674 144.64 75.1889 143.639C77.8326 141.275 80.8768 143.518 82.5591 145.842C84.1613 148.045 86.4845 149.607 88.5273 146.963C89.4887 145.721 89.9693 143.879 91.2911 142.998C93.9749 141.195 96.258 144.76 97.9403 146.322C99.863 148.085 103.828 148.886 104.71 145.601C104.91 144.84 103.748 144.52 103.548 145.281C103.107 147.003 101.025 146.963 99.7829 146.242C98.8216 145.681 98.1406 144.8 97.3796 144.039C96.258 142.837 95.0163 141.676 93.334 141.355C90.5702 140.875 89.3284 143.358 88.0867 145.361C87.7663 145.922 87.3657 146.683 86.7649 147.003C85.3229 147.764 84.2815 146.242 83.5204 145.241C82.5591 143.879 81.4776 142.717 79.9154 141.996C78.6337 141.395 77.1116 141.195 75.7897 141.756C74.2676 142.397 73.3063 144.56 71.5839 144.64C70.8629 144.64 70.8629 145.842 71.624 145.802Z" fill="#FF9BC5"/>
<path d="M99.6224 137.55C101.305 139.553 104.309 142.236 106.953 140.033C107.593 139.472 107.954 138.671 108.635 138.111C109.636 137.349 110.958 137.189 112.12 137.55C114.643 138.231 116.125 140.634 117.447 142.677C117.687 143.037 118.288 143.117 118.488 142.677C120.211 138.912 124.817 137.99 128.422 139.432C129.143 139.713 129.464 138.551 128.743 138.271C124.697 136.628 119.37 137.83 117.447 142.036C117.808 142.036 118.128 142.036 118.488 142.036C116.686 139.232 114.403 136.028 110.638 136.148C109.316 136.188 108.114 136.749 107.233 137.71C106.191 138.912 105.31 139.873 103.588 139.352C102.266 138.952 101.305 137.71 100.424 136.669C99.9829 136.108 99.1417 136.949 99.6224 137.55Z" fill="#FF9BC5"/>
<path d="M171.763 179.448C171.242 178.407 170.641 177.325 170.16 176.244C169.64 175.122 169.88 174.681 170.561 173.72C171.442 172.478 172.804 171.357 174.366 172.198C175.488 172.799 176.209 174.161 176.529 175.322C177.09 177.285 176.609 180.089 174.326 180.73C172.444 181.251 170 180.089 170.08 177.926C170.08 177.165 168.879 177.165 168.879 177.926C168.799 180.61 171.482 182.292 173.966 182.012C177.01 181.651 178.292 178.447 177.851 175.723C177.41 173.079 174.967 169.715 171.923 170.956C170.441 171.557 169.319 173.119 168.638 174.521C168.238 175.362 168.318 175.402 168.718 176.244C169.359 177.525 170 178.807 170.641 180.049C171.082 180.73 172.123 180.129 171.763 179.448Z" fill="#5CC6B3"/>
<path d="M176.208 187.299C174.686 185.496 172.083 181.971 174.326 179.728C175.928 178.126 178.812 178.727 180.134 180.329C181.496 181.971 181.776 185.176 179.653 186.377C177.851 187.419 175.247 186.418 174.927 184.335C174.806 183.574 173.645 183.894 173.765 184.655C174.246 187.379 177.57 188.661 179.974 187.579C182.898 186.217 183.018 182.172 181.295 179.808C179.653 177.525 176.048 176.724 173.805 178.607C170.56 181.29 173.364 185.697 175.407 188.1C175.848 188.741 176.689 187.9 176.208 187.299Z" fill="#EC615B"/>
<path d="M413.055 106.226C413.095 102.701 417.942 103.743 420.025 103.983C421.828 104.183 423.47 103.943 425.072 103.062C426.834 102.141 428.276 100.699 429.999 99.6973C431.12 99.0163 432.482 98.4155 433.804 98.4155C435.206 98.4556 436.087 99.2967 437.329 99.8174C440.213 100.979 442.055 98.2953 443.858 96.5329C447.423 93.0481 452.51 94.4901 456.676 95.9321C457.397 96.1724 457.717 95.0108 456.996 94.7705C453.271 93.4887 448.544 92.0868 444.859 94.2097C443.097 95.2111 442.055 97.0536 440.453 98.2152C438.17 99.8575 436.247 97.2539 433.844 97.2138C428.677 97.1337 425.953 103.102 420.746 102.822C418.503 102.701 416.34 101.86 414.177 102.862C412.775 103.503 411.894 104.624 411.854 106.186C411.814 106.987 413.015 106.987 413.055 106.226Z" fill="#5CC6B3"/>
<path d="M443.017 104.865C445.58 101.22 450.387 99.4572 454.713 100.699C456.595 101.26 458.358 102.782 460.441 102.662C462.163 102.541 463.084 101.139 464.246 100.058C466.129 98.3356 468.572 96.9337 471.216 97.0138C472.818 97.0538 474.06 97.6547 475.301 98.6961C475.702 99.0566 476.022 99.377 476.583 99.5373C477.384 99.7375 478.105 99.377 478.826 99.0566C480.068 98.4958 481.35 98.0152 482.671 97.6547C485.395 96.9737 488.159 96.8536 490.923 97.2141C491.684 97.2942 491.684 96.0925 490.923 96.0124C488.279 95.6519 485.636 95.732 483.032 96.3328C481.87 96.6132 480.709 96.9737 479.587 97.4143C478.706 97.7748 478.265 98.0152 477.264 98.0152C476.182 98.0152 476.263 97.8549 475.542 97.2942C472.137 94.6906 467.571 95.8922 464.486 98.3356C463.645 98.9765 462.964 99.8577 462.163 100.499C460.24 102.021 458.718 101.059 456.756 100.178C455.073 99.4171 453.311 99.0566 451.468 99.1367C447.663 99.2969 444.218 101.18 442.055 104.264C441.535 104.905 442.576 105.506 443.017 104.865Z" fill="#5CC6B3"/>
<path d="M355.896 373.515C356.658 378.322 357.419 383.168 358.14 387.975C342.318 393.102 334.547 396.347 334.867 397.708C335.268 399.391 347.925 398.149 372.84 394.104C371.398 386.493 369.996 378.882 368.554 371.272C364.308 371.993 360.102 372.754 355.896 373.515Z" fill="black"/>
<path d="M321.849 212.573C321.569 218.02 321.168 225.791 320.808 235.204C320.447 245.178 320.247 250.385 320.287 256.794C320.287 259.558 320.407 270.813 321.849 285.313C323.051 297.53 324.934 315.795 331.623 338.266C334.267 347.159 338.352 359.095 344.721 372.714C347.645 373.155 351.09 373.395 355.015 373.235C362.385 372.874 368.354 371.072 372.479 369.389C371.278 365.464 369.595 359.896 367.833 353.207C365.47 344.155 358.66 316.877 356.017 280.226C354.695 261.801 354.214 238.809 356.537 212.373C345.001 212.413 333.425 212.493 321.849 212.573Z" fill="white"/>
<path opacity="0.09" d="M355.536 215.657C354.775 218.541 353.773 222.707 352.692 227.754C349.888 241.092 347.004 260.119 347.284 292.283C347.445 312.07 348.846 339.428 353.974 372.474C355.976 372.273 358.019 372.033 360.142 371.713C364.588 371.032 368.714 370.151 372.479 369.149C370.797 363.702 368.474 355.61 366.07 345.757C357.538 310.628 355.135 280.827 354.494 261.16C354.134 249.464 354.134 233.963 355.536 215.657Z" fill="#606060"/>
<path d="M355.656 213.614C351.651 254.15 354.134 295.287 362.986 335.062C365.51 346.358 368.514 357.493 372.039 368.508C372.279 369.229 373.441 368.909 373.2 368.188C360.863 329.454 354.695 288.838 355.015 248.182C355.095 236.646 355.736 225.07 356.858 213.574C356.938 212.853 355.736 212.853 355.656 213.614Z" fill="#161616"/>
<path d="M320.207 249.544C318.725 282.389 323.331 315.435 333.666 346.638C336.55 355.37 339.914 363.942 343.719 372.313C344.04 373.034 345.081 372.394 344.761 371.713C331.342 341.871 323.452 309.627 321.569 276.982C321.048 267.849 321.008 258.717 321.409 249.544C321.449 248.743 320.247 248.783 320.207 249.544Z" fill="#161616"/>
<path d="M344.2 372.674C345.562 374.196 348.686 373.835 350.529 373.876C353.333 373.916 356.177 373.635 358.941 373.235C361.945 372.794 364.949 372.153 367.913 371.432C369.395 371.072 372.479 370.992 373.24 369.349C373.561 368.668 372.519 368.027 372.199 368.748C371.838 369.59 369.836 369.75 369.075 369.91C367.953 370.19 366.872 370.431 365.75 370.711C363.627 371.192 361.544 371.632 359.421 371.953C357.218 372.313 355.015 372.554 352.812 372.634C351.13 372.714 346.323 373.235 345.082 371.833C344.521 371.232 343.68 372.113 344.2 372.674Z" fill="#161616"/>
<path d="M310.033 212.333C308.872 214.857 307.31 219.663 306.188 223.909C304.786 229.317 304.426 232.561 303.625 237.288C302.142 246.02 301.141 247.502 298.978 257.075C296.695 267.329 295.653 275.22 294.852 281.509C294.212 286.396 293.05 296.369 292.529 309.267C292.289 314.835 292.169 318.119 292.289 322.646C292.609 336.865 294.892 347.88 295.894 352.206C298.578 364.103 302.503 374.277 306.428 382.528C308.231 383.45 310.955 384.611 314.399 385.372C318.645 386.294 324.093 387.495 329.3 384.852C330.742 384.131 334.026 382.128 336.51 377.401C334.587 372.154 332.224 364.704 330.341 355.571C325.695 332.9 327.377 314.955 328.539 303.659C330.702 282.31 335.669 266.288 344.201 238.65C347.085 229.357 349.648 221.826 351.411 216.819C352.011 212.854 353.413 200.958 347.044 195.991C337.712 188.621 315.962 199.556 310.033 212.333Z" fill="white"/>
<path opacity="0.08" d="M345.762 233.643C343.159 237.768 339.554 243.897 335.989 251.627C331.583 261.161 325.094 277.904 321.609 311.27C319.686 329.495 318.405 355.01 321.369 385.813C322.61 385.933 327.898 386.374 332.424 382.728C334.747 380.846 335.949 378.683 336.55 377.321C334.587 371.914 332.064 363.983 330.141 354.169C324.453 325.57 328.018 302.578 330.662 286.556C332.825 273.177 337.03 254.712 345.762 233.643Z" fill="#606060"/>
<path d="M316.322 385.292C317.684 390.179 319.046 395.106 320.408 399.993C298.938 406.522 288.403 410.607 288.764 412.209C289.164 414.052 303.785 412.69 332.624 408.124C331.863 400.273 331.102 392.462 330.381 384.611C325.655 384.812 320.968 385.052 316.322 385.292Z" fill="black"/>
<path d="M309.593 212.814C305.347 223.548 303.184 234.924 300.9 246.22C298.497 258.036 296.174 269.852 294.492 281.789C291.367 303.899 290.406 326.531 294.692 348.561C296.975 360.417 300.82 371.953 306.468 382.608C306.829 383.289 307.87 382.688 307.51 382.007C286.08 341.271 292.569 293.605 301.301 250.386C303.825 237.848 306.068 225.071 310.794 213.134C311.034 212.413 309.873 212.093 309.593 212.814Z" fill="#161616"/>
<path d="M345.242 233.563C331.823 269.332 322.851 307.785 328.058 346.118C329.5 356.693 332.024 367.067 335.709 377.081C335.989 377.802 337.151 377.481 336.87 376.76C323.532 340.751 326.256 301.256 336.269 264.766C339.153 254.311 342.598 244.017 346.403 233.843C346.684 233.122 345.522 232.842 345.242 233.563Z" fill="#161616"/>
<path d="M306.588 382.569C312.236 385.693 318.725 387.015 325.134 386.174C330.381 385.453 336.47 383.049 336.99 377.001C337.07 376.24 335.869 376.24 335.789 377.001C335.228 383.29 327.617 384.972 322.45 385.212C317.123 385.453 311.876 384.131 307.229 381.527C306.508 381.167 305.907 382.208 306.588 382.569Z" fill="#161616"/>
<path d="M318.284 107.949C317.203 109.231 315.681 111.193 314.239 113.797C309.312 122.449 308.991 130.941 308.911 138.391C308.831 149.246 308.751 154.693 309.913 166.51C310.994 177.565 311.275 193.427 307.389 213.655C310.874 216.218 315.961 219.182 322.61 220.745C341.757 225.231 357.619 214.055 360.623 211.892C356.817 189.582 354.735 171.717 353.533 159.18C352.772 151.249 349.968 139.713 344.4 116.601C342.718 109.551 340.996 102.822 335.788 100.899C328.578 98.1754 319.726 106.547 318.284 107.949Z" fill="#FF9BC5"/>
<path opacity="0.1" d="M335.588 101.46C336.229 104.064 337.15 107.989 338.072 112.836C339.273 119.084 340.875 128.537 341.997 142.597C343.159 157.097 344.48 184.294 344.881 219.463C347.605 218.662 350.889 217.46 354.374 215.537C356.697 214.256 358.7 212.894 360.382 211.612C360.102 208.528 359.581 203.841 358.74 198.194C357.659 191.104 356.577 186.177 356.056 183.734C354.775 177.405 353.333 167.952 353.172 154.814C351.53 147.844 350.288 142.236 349.447 138.511C347.124 127.937 346.443 124.051 344.681 117.642C342.918 111.193 341.076 106.066 339.914 102.982C338.472 102.421 337.03 101.941 335.588 101.46Z" fill="#606060"/>
<path d="M318.244 111.795C318.604 112.516 319.205 112.756 320.527 113.397C321.649 113.958 322.73 114.638 323.852 115.119C327.296 116.601 331.342 123.17 331.983 124.212C334.426 128.177 337.27 132.824 338.912 139.553C339.353 141.315 340.354 145.882 339.193 161.303C337.951 177.125 336.349 179.328 337.591 187.219C338.512 192.947 339.673 199.796 345.321 203.521C350.568 206.966 356.617 205.764 357.859 205.524C365.469 204.042 369.795 198.154 374.001 192.426C380.41 183.734 382.853 175.042 383.895 169.995C384.375 167.632 384.295 160.702 384.175 146.883C384.015 132.623 383.774 127.696 380.049 123.531C377.526 120.727 374.441 119.405 372.319 118.724C372.479 117.843 372.519 116.521 371.798 115.399C370.436 113.317 367.191 113.357 365.109 113.397C356.176 113.637 349.527 119.645 349.207 119.926C343.639 125.093 341.997 131.422 341.476 134.065C340.354 129.098 338.512 125.293 337.07 122.85C335.828 120.727 333.986 118.564 330.26 114.158C327.336 110.713 325.934 109.391 323.731 108.67C323.251 108.51 319.606 107.428 318.404 109.071C317.843 109.832 317.843 110.993 318.244 111.795Z" fill="white"/>
<path opacity="0.11" d="M317.964 110.312C318.204 109.872 320.888 110.873 321.168 110.993C325.133 112.516 328.658 115.68 333.185 123.01C335.508 126.775 338.432 132.103 340.915 139.032C342.678 137.23 344.16 135.748 345.321 134.626C345.321 134.626 349.607 130.5 356.537 126.495C357.218 126.094 358.059 125.614 358.66 125.974C359.901 126.655 358.58 129.98 358.94 133.064C359.221 135.387 360.582 138.592 365.75 142.156C365.87 142.837 365.91 143.799 365.349 144.44C364.227 145.681 361.343 144.68 359.861 144.159C357.458 143.318 352.812 141.115 347.324 134.666C346.803 136.749 346.122 139.713 345.602 143.358C345.121 146.523 343.799 157.057 346.002 170.596C346.884 175.963 348.526 183.133 351.89 191.304C353.372 191.945 355.255 192.546 357.498 192.907C362.185 193.628 366.07 192.706 368.313 191.985C366.991 192.626 365.189 193.708 363.627 195.59C361.744 197.873 361.704 199.596 360.142 201.719C359.1 203.161 357.218 204.963 353.733 206.245C352.651 206.125 351.009 205.844 349.207 205.043C343.719 202.6 341.236 197.433 340.114 195.03C338.632 191.785 336.349 185.216 338.512 162.985C339.754 150.288 341.116 146.322 339.033 139.072C337.43 133.505 334.667 128.898 333.705 127.336C331.983 124.532 328.899 119.525 323.291 114.919C320.647 112.676 317.723 110.833 317.964 110.312Z" fill="#606060"/>
<path d="M362.625 119.285C361.904 120.246 360.983 121.648 360.262 123.491C359.861 124.572 358.9 127.095 359.14 130.3C359.581 136.669 364.147 140.554 364.988 141.235C365.549 141.676 366.03 142.036 366.35 142.236C365.869 143.879 365.309 146.322 365.108 149.326C364.788 153.572 364.467 158.339 366.951 159.741C368.553 160.622 370.956 160.021 372.278 158.739C372.599 158.419 373.52 157.417 373.76 152.891C374.041 147.524 372.919 145.281 374.521 143.718C375.202 142.997 376.364 142.557 377.365 142.116C378.487 141.636 379.488 141.395 380.209 141.235C379.769 144.52 379.448 147.444 379.208 149.807C378.927 152.731 378.807 154.213 379.809 155.134C380.73 155.975 382.252 156.136 383.414 155.615C384.936 154.934 385.416 153.051 386.258 149.286C386.938 146.322 387.499 143.839 387.139 140.474C386.938 138.752 386.578 137.35 386.258 136.388C386.177 135.707 385.977 134.706 385.657 133.544C384.976 131.221 384.335 130.54 383.934 129.058C383.334 126.935 384.014 125.894 384.175 123.491C384.335 121.608 384.175 118.924 382.813 115.56C382.292 115.6 381.211 115.68 380.089 116.441C378.727 117.322 378.166 118.604 377.966 119.044C376.925 118.804 375.042 118.564 372.879 119.165C369.154 120.166 367.191 122.93 366.67 123.771C367.712 121.488 366.831 119.245 365.429 118.684C364.227 118.163 362.785 119.205 362.625 119.285Z" fill="black"/>
<path d="M367.152 131.702C367.552 130.941 369.555 129.259 370.236 130.66C370.556 131.341 371.598 130.741 371.277 130.06C370.837 129.138 369.755 128.858 368.794 129.058C367.632 129.259 366.671 130.06 366.11 131.101C365.75 131.782 366.791 132.383 367.152 131.702Z" fill="white"/>
<path d="M378.887 128.617C379.128 128.097 379.368 127.496 379.769 127.095C380.169 126.695 381.371 126.254 381.411 127.175C381.451 127.936 382.653 127.936 382.612 127.175C382.532 126.014 381.531 125.253 380.369 125.413C379.048 125.653 378.367 126.855 377.846 127.976C377.525 128.697 378.567 129.338 378.887 128.617Z" fill="white"/>
<path d="M379.208 132.423C379.208 132.463 379.208 132.503 379.208 132.543C379.128 132.623 379.048 132.703 379.008 132.744C378.807 132.864 378.487 132.744 378.527 132.503C378.527 132.503 378.527 132.383 378.567 132.423L378.447 132.543C378.727 132.543 379.008 132.543 379.288 132.543C379.248 132.503 379.248 132.503 379.208 132.463C379.248 132.503 379.248 132.503 379.248 132.503C379.208 132.463 379.248 132.463 379.248 132.543C379.288 132.784 379.168 132.944 378.847 133.064C378.727 133.024 378.647 133.024 378.527 132.984C378.367 132.904 378.407 132.663 378.447 132.543C378.487 132.503 378.447 132.503 378.407 132.583C378.447 132.543 378.447 132.543 378.407 132.583C378.126 132.784 378.006 133.104 378.207 133.424C378.367 133.665 378.767 133.825 379.048 133.625C379.328 133.424 379.609 133.144 379.649 132.744C379.649 132.303 379.328 131.902 378.888 131.902C378.447 131.902 378.126 132.183 378.086 132.623C378.046 132.944 378.247 133.224 378.447 133.424C378.687 133.665 379.048 133.625 379.288 133.424C379.809 133.024 379.929 132.183 379.328 131.782C379.048 131.622 378.687 131.582 378.407 131.742C378.046 131.942 378.006 132.423 378.086 132.784C378.126 133.104 378.527 133.264 378.807 133.184C379.128 133.064 379.248 132.744 379.208 132.423Z" fill="white"/>
<path d="M372.799 133.664C371.638 134.345 370.075 134.025 369.314 132.903C368.874 132.263 367.832 132.863 368.273 133.504C369.435 135.146 371.638 135.707 373.44 134.706C374.081 134.305 373.48 133.264 372.799 133.664Z" fill="white"/>
<path d="M371.918 136.268C371.037 136.949 370.276 137.83 369.755 138.832C369.394 139.513 370.436 140.113 370.796 139.432C371.277 138.511 371.958 137.75 372.799 137.109C373.039 136.909 372.999 136.468 372.799 136.268C372.519 136.028 372.158 136.068 371.918 136.268Z" fill="white"/>
<path d="M381.652 131.862C382.453 130.941 383.054 129.899 383.454 128.738C383.694 128.017 382.533 127.696 382.293 128.417C381.972 129.378 381.451 130.26 380.811 131.021C380.33 131.622 381.171 132.463 381.652 131.862Z" fill="white"/>
<path d="M381.731 133.384C382.693 133.184 383.814 132.944 384.575 133.745C385.096 134.306 385.937 133.464 385.416 132.904C384.335 131.742 382.773 131.942 381.371 132.263C380.65 132.383 380.97 133.545 381.731 133.384Z" fill="white"/>
<path d="M317.763 110.873C319.606 107.989 323.972 109.712 326.175 111.154C328.819 112.836 330.821 115.359 332.624 117.883C336.269 122.97 339.513 128.498 340.715 134.706C340.875 135.467 342.037 135.147 341.877 134.386C340.475 126.976 336.149 119.846 331.262 114.158C328.418 110.873 320.367 104.665 316.722 110.313C316.321 110.913 317.363 111.554 317.763 110.873Z" fill="#161616"/>
<path d="M320.247 113.597C329.86 119.005 335.267 129.139 337.991 139.473C338.191 140.234 339.353 139.914 339.153 139.153C336.349 128.538 330.701 118.084 320.847 112.556C320.166 112.155 319.566 113.197 320.247 113.597Z" fill="#161616"/>
<path d="M341.876 134.185C342.878 127.095 347.404 121.167 353.612 117.762C356.817 116 360.382 114.919 364.027 114.398C365.749 114.157 367.752 113.917 369.434 114.558C371.277 115.239 373.039 118.163 370.716 119.485C370.035 119.845 370.636 120.887 371.317 120.526C373.88 119.084 373.24 115.399 370.996 113.997C367.512 111.794 361.744 113.356 358.179 114.558C349.367 117.402 342.076 124.532 340.755 133.945C340.594 134.626 341.756 134.946 341.876 134.185Z" fill="#161616"/>
<path d="M344.56 135.988C346.523 133.705 349.006 131.782 351.41 129.98C353.733 128.217 356.216 126.775 359.1 126.134C359.861 125.974 359.541 124.812 358.78 124.973C355.816 125.654 353.212 127.136 350.809 128.938C348.325 130.821 345.762 132.783 343.719 135.147C343.198 135.707 344.039 136.589 344.56 135.988Z" fill="#161616"/>
<path d="M359.26 126.254C360.102 124.332 361.183 122.489 362.505 120.847C362.745 120.567 363.026 120.086 363.346 119.886C363.626 119.365 363.987 119.325 364.508 119.805C365.149 119.805 365.429 120.046 365.429 120.607C365.87 121.448 365.91 122.89 366.07 123.851C366.23 124.612 367.392 124.292 367.231 123.531C366.911 122.009 366.51 116.561 363.626 118.043C362.505 118.604 361.664 120.006 360.943 120.967C359.861 122.449 358.98 124.011 358.219 125.654C357.899 126.335 358.94 126.975 359.26 126.254Z" fill="#161616"/>
<path d="M366.991 124.212C369.034 121.568 373.2 117.923 376.765 119.886C377.445 120.246 378.046 119.205 377.365 118.845C373.24 116.641 368.593 120.246 366.11 123.371C365.669 123.972 366.51 124.813 366.991 124.212Z" fill="#161616"/>
<path d="M377.926 119.686C378.487 118.804 381.091 115.64 382.212 116.481C382.813 116.922 382.933 118.484 383.094 119.205C383.334 120.327 383.414 121.448 383.454 122.61C383.494 123.371 384.696 123.371 384.656 122.61C384.616 121.007 384.415 119.445 384.015 117.883C383.774 117.002 383.574 115.32 382.533 115.039C381.571 114.799 380.25 115.72 379.529 116.241C378.447 117.002 377.606 117.963 376.925 119.085C376.484 119.726 377.526 120.327 377.926 119.686Z" fill="#161616"/>
<path d="M346.122 134.025C348.886 136.709 351.81 139.192 354.934 141.435C358.019 143.638 361.023 145.2 364.908 145C365.669 144.96 365.669 143.758 364.908 143.799C360.943 143.999 358.019 142.236 354.934 139.993C352.09 137.91 349.447 135.627 346.923 133.184C346.403 132.663 345.561 133.504 346.122 134.025Z" fill="#161616"/>
<path d="M338.031 138.151C342.397 157.538 331.021 178.727 340.434 197.273C342.197 200.757 344.88 203.922 348.566 205.484C352.17 207.006 356.336 206.886 360.061 205.684C368.313 203.04 373.64 195.39 377.726 188.18C380.329 183.654 382.492 178.807 383.774 173.72C384.415 171.197 384.816 168.553 384.936 165.949C385.056 162.945 384.655 159.941 384.776 156.937C384.816 156.176 383.614 156.176 383.574 156.937C383.414 161.824 384.055 166.47 383.093 171.317C382.252 175.643 380.69 179.848 378.727 183.774C375.082 191.144 370.155 199.436 362.585 203.321C358.659 205.324 353.813 206.085 349.607 204.523C345.481 203 342.758 199.355 340.995 195.47C337.23 187.018 337.67 177.405 338.672 168.433C339.793 158.259 341.556 147.964 339.273 137.79C338.992 137.109 337.831 137.39 338.031 138.151Z" fill="#161616"/>
<path d="M355.856 178.246C353.613 182.172 352.131 186.417 351.49 190.904C351.369 191.665 352.531 191.985 352.651 191.224C353.292 186.818 354.694 182.692 356.897 178.847C357.298 178.206 356.256 177.605 355.856 178.246Z" fill="#161616"/>
<path d="M356.617 178.687C362.545 178.166 368.794 177.045 374.722 177.685C375.483 177.766 375.483 176.564 374.722 176.484C368.794 175.803 362.545 176.964 356.617 177.485C355.856 177.565 355.856 178.767 356.617 178.687Z" fill="#161616"/>
<path d="M352.09 191.985C355.014 193.707 358.419 193.547 361.704 193.467C365.148 193.347 368.593 192.946 371.597 191.144C372.278 190.743 371.637 189.702 370.996 190.102C368.153 191.825 364.948 192.145 361.704 192.265C358.659 192.385 355.455 192.586 352.691 190.984C352.05 190.583 351.45 191.624 352.09 191.985Z" fill="#161616"/>
<path d="M374.161 177.405C373.4 181.811 372.238 186.057 370.676 190.223C370.396 190.944 371.557 191.264 371.838 190.543C373.44 186.377 374.602 182.091 375.323 177.725C375.443 176.964 374.281 176.644 374.161 177.405Z" fill="#161616"/>
<path d="M355.536 180.329C357.498 184.655 363.066 185.736 367.352 185.776C368.113 185.776 368.113 184.575 367.352 184.575C363.507 184.495 358.339 183.613 356.577 179.688C356.257 179.007 355.215 179.648 355.536 180.329Z" fill="#161616"/>
<path d="M364.188 184.214C364.067 185.216 363.947 186.217 363.827 187.178C363.747 187.939 364.949 187.939 365.029 187.178C365.149 186.177 365.269 185.176 365.389 184.214C365.469 183.453 364.268 183.453 364.188 184.214Z" fill="#161616"/>
<path d="M366.47 184.214C366.35 185.216 366.23 186.217 366.15 187.218C366.07 187.98 367.271 187.98 367.351 187.218C367.472 186.217 367.592 185.216 367.672 184.214C367.752 183.453 366.55 183.453 366.47 184.214Z" fill="#161616"/>
<path d="M367.512 185.897C370.356 185.256 372.719 183.494 374.201 181.01C374.602 180.329 373.56 179.728 373.16 180.409C371.798 182.653 369.715 184.135 367.192 184.735C366.43 184.936 366.751 186.097 367.512 185.897Z" fill="#161616"/>
<path d="M358.74 124.091C357.538 131.181 358.86 139.633 366.11 142.877C366.791 143.198 367.432 142.156 366.711 141.836C359.941 138.792 358.78 130.981 359.901 124.412C360.022 123.651 358.86 123.33 358.74 124.091Z" fill="#161616"/>
<path d="M383.374 122.168C383.454 124.452 383.414 126.775 383.734 129.018C384.055 131.461 386.258 134.185 385.096 136.628C384.776 137.309 385.817 137.95 386.138 137.229C387.179 135.026 386.258 133.184 385.497 131.021C384.495 128.257 384.736 125.052 384.615 122.128C384.535 121.367 383.334 121.367 383.374 122.168Z" fill="#161616"/>
<path d="M369.395 142.036C371.157 141.115 373.16 142.076 373.56 143.999C373.6 144.199 373.881 144.119 373.841 143.919C373.36 141.796 371.157 140.754 369.234 141.756C369.074 141.876 369.234 142.156 369.395 142.036Z" fill="white"/>
<path d="M372.439 144.079C372.719 144.399 372.919 144.76 373.039 145.16C373.12 145.361 373.4 145.28 373.32 145.08C373.16 144.64 372.919 144.239 372.639 143.879C372.519 143.718 372.278 143.959 372.439 144.079Z" fill="white"/>
<path d="M380.49 141.275C380.85 139.633 381.892 138.271 383.414 137.51C383.574 137.43 383.454 137.15 383.254 137.27C381.651 138.031 380.57 139.473 380.209 141.195C380.169 141.395 380.45 141.476 380.49 141.275Z" fill="white"/>
<path d="M309.953 56.3574C307.189 57.7593 304.866 60.403 303.824 61.5646C301.261 64.4886 299.939 67.2124 298.497 70.2566C297.295 72.74 295.894 76.2649 294.772 80.671C296.334 80.9513 297.896 81.1917 299.458 81.4721C299.378 82.9942 299.378 85.2373 299.979 87.8809C300.54 90.2842 301.461 94.1296 304.666 96.8133C309.072 100.578 314.92 99.6572 316.001 99.497C316.081 101.38 316.482 104.063 318.004 106.827C318.405 107.508 318.805 108.149 319.206 108.71C321.409 108.069 324.813 106.747 328.138 104.023C336.63 97.1738 337.791 86.9596 338.152 83.9956C338.673 79.4292 339.674 70.8174 334.026 63.6875C328.138 56.3173 316.963 52.8325 309.953 56.3574Z" fill="white"/>
<path d="M301.742 64.6887C302.863 63.0064 305.026 60.5229 307.47 58.8006C311.395 56.0367 313.158 57.1983 315.16 54.755C316.602 52.9925 317.524 50.1086 316.442 48.7467C314.72 46.5837 308.591 49.1873 307.79 49.5478C306.028 50.3088 300.22 52.7522 297.897 58.9207C295.974 64.0879 297.256 69.7357 298.137 69.8558C298.377 69.8959 298.537 69.4953 299.819 67.5326C300.42 66.5312 301.101 65.61 301.742 64.6887Z" fill="#5CC6B3"/>
<path d="M310.474 52.6323C310.153 53.6737 309.672 55.7566 311.275 59.8422C314.119 67.1723 320.768 73.7414 324.092 72.5398C324.813 72.2594 325.574 71.5384 327.016 71.4583C327.377 71.4583 328.819 71.3782 329.94 72.2594C331.703 73.6613 331.783 76.7055 330.621 78.6682C330.421 79.0287 329.34 80.671 327.697 80.7912C326.255 80.9113 325.775 79.7898 324.613 79.7097C321.769 79.5494 319.326 85.7981 319.005 86.6392C318.364 88.2414 316.802 92.4072 317.924 97.7346C318.164 98.8962 318.725 101.34 320.447 103.863C324.173 109.27 330.421 110.592 332.744 111.073C335.027 111.554 343.719 113.356 350.489 107.748C351.57 106.867 355.135 103.823 356.097 98.6558C357.739 89.9238 350.409 83.3947 349.968 83.0343C349.648 78.508 348.566 71.298 344.761 63.4071C342.358 58.4002 340.115 53.7939 335.027 50.3091C328.338 45.7828 318.605 44.501 313.518 48.4265C312.997 48.9071 311.275 50.269 310.474 52.6323Z" fill="#5CC6B3"/>
<path d="M302.863 95.6118C302.262 96.2126 300.5 98.0552 300.179 100.939C299.739 104.945 302.423 107.709 302.983 108.269C305.907 111.273 310.794 112.475 314.319 110.673C314.599 110.552 317.684 108.91 317.804 106.547C317.844 105.505 317.283 104.985 316.482 102.662C315.961 101.139 315.641 99.8977 315.401 99.0566C314.319 99.4171 312.476 99.8977 310.193 99.5773C306.108 99.0566 303.584 96.4129 302.863 95.6118Z" fill="#5CC6B3"/>
<path opacity="0.12" d="M310.874 56.1572C310.914 57.3989 311.075 59.2415 311.916 61.2042C312.476 62.526 313.037 63.3271 313.478 63.968C315.16 66.5316 315.721 68.9349 316.602 71.6186C318.004 75.7843 317.764 79.2691 317.483 83.5951C317.243 87.2001 316.442 92.6877 313.838 99.0565C314.92 99.3769 316.482 100.018 318.164 101.139C321.249 103.222 322.651 105.706 323.532 106.867C325.334 109.231 329.34 111.714 338.993 111.554C338.032 110.592 336.67 109.15 335.188 107.388C331.703 103.302 328.659 99.7374 326.856 95.4114C325.815 92.928 324.213 87.841 325.454 80.4708C326.576 81.0316 327.898 80.9915 328.939 80.3106C330.021 79.5896 330.702 78.1476 330.341 76.8258C329.901 75.3037 328.058 74.2622 326.175 74.7429C325.775 73.7415 325.134 72.2995 324.093 70.7374C322.45 68.294 320.728 66.7719 320.087 66.2111C318.044 64.4487 315.08 61.4445 310.874 56.1572Z" fill="#606060"/>
<path opacity="0.14" d="M295.212 79.9504C295.252 79.3095 297.295 78.7888 299.018 78.909C300.54 79.0291 302.342 79.7101 302.302 80.3109C302.262 80.8717 300.58 81.3123 299.338 81.3523C297.415 81.4324 295.212 80.5913 295.212 79.9504Z" fill="#606060"/>
<path d="M300.179 65.0495C297.896 70.0564 295.853 75.1434 294.091 80.3506C293.971 80.671 294.211 80.9915 294.492 81.0716C296.054 81.6724 297.616 81.9528 299.258 81.9128C300.019 81.9128 300.019 80.7111 299.258 80.7111C297.696 80.7111 296.254 80.4307 294.812 79.91C294.932 80.1503 295.092 80.3907 295.213 80.631C296.935 75.5039 298.898 70.497 301.181 65.6102C301.541 64.9694 300.5 64.3285 300.179 65.0495Z" fill="#161616"/>
<path d="M299.098 82.1528C299.419 87.32 299.899 93.0479 303.745 96.9332C307.43 100.698 312.757 100.378 317.604 99.8172C318.365 99.7371 318.365 98.5354 317.604 98.6156C313.118 99.1363 308.03 99.5769 304.586 96.0921C300.981 92.447 300.62 86.9995 300.3 82.1528C300.26 81.3918 299.058 81.3918 299.098 82.1528Z" fill="#161616"/>
<path d="M315.24 99.9377C315.761 102.742 316.722 105.425 318.084 107.909C318.445 108.59 319.486 107.989 319.125 107.308C317.804 104.865 316.922 102.341 316.402 99.6173C316.282 98.8562 315.12 99.1767 315.24 99.9377Z" fill="#161616"/>
<path d="M299.899 88.2814C301.862 90.0038 304.786 89.2027 305.547 86.6792C305.787 85.9182 304.626 85.6378 304.385 86.3588C303.905 87.961 302.022 88.5618 300.78 87.4002C300.179 86.9196 299.338 87.7607 299.899 88.2814Z" fill="#161616"/>
<path d="M303.584 86.6393C304.225 86.7995 304.706 87.16 305.106 87.6407C305.307 87.881 305.747 87.841 305.947 87.6407C306.188 87.4004 306.148 87.0399 305.947 86.7995C305.427 86.1587 304.706 85.678 303.905 85.4777C303.184 85.2774 302.863 86.439 303.584 86.6393Z" fill="#161616"/>
<path d="M305.387 71.6586C305.707 69.9763 307.79 70.2967 308.912 70.8976C309.873 71.4183 310.554 72.2595 310.954 73.2608C311.235 73.9818 312.396 73.6614 312.116 72.9404C311.475 71.218 310.153 69.8561 308.311 69.3755C306.628 68.9349 304.626 69.4556 304.265 71.3382C304.105 72.0992 305.267 72.4197 305.387 71.6586Z" fill="#161616"/>
<path d="M305.347 64.5687C307.149 61.5645 310.674 63.8877 311.395 66.4112C311.595 67.1723 312.757 66.8518 312.557 66.0908C312.036 64.2482 310.754 62.5259 308.791 62.0452C307.029 61.6446 305.226 62.4057 304.305 63.9278C303.905 64.6488 304.946 65.2496 305.347 64.5687Z" fill="#161616"/>
<path d="M306.548 78.4678C307.309 78.4678 307.309 77.2661 306.548 77.2661C305.787 77.2661 305.747 78.4678 306.548 78.4678Z" fill="#161616"/>
<path d="M308.832 76.6655C308.872 76.6655 308.952 76.6655 308.992 76.6655C309.312 76.6655 309.593 76.3851 309.593 76.0647C309.593 75.7443 309.312 75.4639 308.992 75.4639C308.952 75.4639 308.872 75.4639 308.832 75.4639C308.511 75.4639 308.231 75.7443 308.231 76.0647C308.231 76.4252 308.511 76.6655 308.832 76.6655Z" fill="#161616"/>
<path d="M308.872 78.708C308.872 78.7481 308.872 78.7881 308.872 78.8282C308.872 79.5892 310.073 79.5892 310.073 78.8282C310.073 78.7881 310.073 78.7481 310.073 78.708C310.073 77.9469 308.872 77.9469 308.872 78.708C308.872 78.7481 308.872 78.7881 308.872 78.8282C308.872 79.5892 310.073 79.5892 310.073 78.8282C310.073 78.7881 310.073 78.7481 310.073 78.708C310.073 77.9469 308.872 77.9469 308.872 78.708Z" fill="#161616"/>
<path d="M326.336 72.5795C327.417 71.0173 329.26 72.0187 329.901 73.3005C330.421 74.3019 330.421 75.5035 330.381 76.585C330.221 79.3088 327.938 81.2315 325.294 79.5491C324.653 79.1085 324.053 80.15 324.693 80.5906C326.256 81.632 328.258 81.7522 329.821 80.5505C331.423 79.3088 331.703 77.266 331.583 75.3433C331.463 73.5008 330.742 71.4579 328.819 70.777C327.457 70.2963 326.095 70.8171 325.294 71.9787C324.894 72.5795 325.935 73.1803 326.336 72.5795Z" fill="#161616"/>
<path d="M218.586 49.7085C217.745 49.7085 216.904 49.7485 216.103 49.7485C214.741 52.3922 213.98 54.7955 213.539 56.5579C212.258 61.725 212.578 66.011 212.818 68.0938C212.979 69.4958 213.219 70.6574 213.419 71.4585C214.14 71.4585 214.861 71.4585 215.582 71.4585C215.863 72.4198 216.143 73.3811 216.423 74.3425C223.193 74.3024 228.76 74.3024 232.646 74.3425C256.198 74.5427 272.621 75.464 276.426 75.6643C281.193 75.9447 285.078 76.2251 287.481 76.3853C287.562 74.9032 287.962 74.3825 288.323 74.2223C288.964 73.9419 289.524 74.6229 290.365 74.4626C291.247 74.3024 291.807 73.3811 292.168 72.54C292.889 72.9005 294.211 73.3811 295.773 73.1408C296.133 73.1008 296.454 72.9806 296.734 72.9005C297.415 71.5386 298.096 70.1767 298.777 68.8148C297.816 68.4944 296.454 68.214 294.812 68.214C293.89 68.214 293.089 68.3342 292.408 68.4543C292.328 68.2541 291.687 66.4516 290.005 66.051C289.484 65.9308 289.044 65.9709 288.683 66.051C288.443 65.6104 288.202 65.1698 287.962 64.7292C287.001 64.569 285.519 64.3286 283.756 64.0082C269.457 61.4046 259.483 58.2402 251.872 55.9571C244.582 53.754 233.968 50.7499 220.349 47.4253C219.788 48.1863 219.187 48.9474 218.586 49.7085Z" fill="white"/>
<path opacity="0.07" d="M212.938 65.2497C213.299 65.1696 213.699 66.0909 214.14 65.9707C214.861 65.8105 214.701 63.287 214.861 61.4044C214.981 59.602 215.502 56.9984 217.264 53.834C218.426 54.3146 220.188 55.0757 222.311 55.997C229.962 59.3216 235.249 61.8851 236.851 62.6061C247.426 67.5329 259.042 69.7359 261.966 70.2967C268.615 71.5785 277.828 72.7 288.883 72.2194C288.403 73.5412 287.922 74.863 287.441 76.1849C285.599 76.1448 282.915 76.1448 279.63 76.0647C265.531 75.7843 255.677 75.3437 250.03 75.1034C242.059 74.7829 230.643 74.4625 216.223 74.5025C216.063 73.421 215.902 72.3395 215.742 71.258C214.821 71.4183 213.9 71.5785 212.978 71.7387C212.378 66.7318 212.538 65.3299 212.938 65.2497Z" fill="#606060"/>
<path d="M219.428 47.4651C214.421 55.1957 213.019 64.809 215.582 73.6612C215.783 74.4223 216.944 74.1019 216.744 73.3408C214.26 64.769 215.622 55.5562 220.469 48.0659C220.91 47.385 219.868 46.7841 219.428 47.4651Z" fill="#161616"/>
<path d="M220.469 48.6266C243.021 54.3145 265.532 60.0023 288.083 65.6501C288.844 65.8504 289.164 64.6888 288.403 64.4885C265.852 58.8007 243.341 53.1128 220.79 47.465C220.069 47.2647 219.748 48.4263 220.469 48.6266Z" fill="#161616"/>
<path d="M216.423 74.983C239.936 74.7827 263.448 75.3435 286.921 76.6252C287.682 76.6653 287.682 75.4636 286.921 75.4236C263.448 74.1418 239.936 73.581 216.423 73.7813C215.662 73.7813 215.662 74.983 216.423 74.983Z" fill="#161616"/>
<path d="M287.722 65.2095C289.324 68.7744 288.963 72.82 286.76 76.0644C286.32 76.7053 287.361 77.3062 287.802 76.6653C290.245 73.0603 290.566 68.5741 288.763 64.6086C288.443 63.9277 287.401 64.5285 287.722 65.2095Z" fill="#161616"/>
<path d="M288.924 66.7715C289.364 67.092 289.685 66.9718 290.205 67.092C291.207 67.3724 291.607 68.2936 291.808 69.255C292.128 71.0174 291.687 74.7425 289.084 73.7011C288.363 73.4207 288.042 74.5823 288.763 74.8627C291.407 75.9041 293.129 73.1403 293.129 70.8171C293.129 69.5353 292.969 68.0934 292.248 67.0119C292.008 66.6514 291.687 66.2909 291.287 66.0906C290.766 65.8503 290.045 66.0105 289.605 65.69C288.884 65.2895 288.283 66.3309 288.924 66.7715Z" fill="#161616"/>
<path d="M292.448 68.9746C294.491 68.8545 296.534 68.8945 298.537 69.1749C299.298 69.255 299.298 68.0534 298.537 67.9733C296.494 67.7329 294.491 67.6528 292.448 67.773C291.687 67.8531 291.687 69.0548 292.448 68.9746Z" fill="#161616"/>
<path d="M292.288 73.381C293.93 73.6614 295.572 73.7816 297.215 73.6214C297.976 73.5413 297.976 72.3396 297.215 72.4197C295.653 72.5399 294.131 72.4998 292.608 72.2194C291.847 72.0993 291.527 73.2208 292.288 73.381Z" fill="#161616"/>
<path d="M218.747 49.3878C214.861 47.1447 213.78 54.1544 213.259 56.3575C212.057 61.4445 211.497 66.6917 212.979 71.7788C213.059 72.0191 213.299 72.2194 213.539 72.2194C214.06 72.2194 214.621 72.2194 215.142 72.2194C215.903 72.2194 215.903 71.0177 215.142 71.0177C214.621 71.0177 214.06 71.0177 213.539 71.0177C213.74 71.1779 213.94 71.2981 214.1 71.4583C213.059 67.7732 213.059 64.0481 213.66 60.2829C213.94 58.6006 214.3 56.9182 214.741 55.276C215.021 54.1945 215.903 49.1074 218.106 50.4293C218.827 50.8298 219.428 49.7884 218.747 49.3878Z" fill="#161616"/>
<path d="M262.047 57.9995C261.326 57.1183 260.124 57.2384 259.964 57.2384C258.642 57.3185 257.36 58.5202 255.959 61.4442C253.235 67.0119 253.115 72.5796 253.115 73.4608C253.075 77.3061 253.435 83.5548 256.159 91.0051C256.399 94.1294 256.92 98.4954 258.081 103.582C260.124 112.715 262.287 122.328 269.738 130.86C272.541 134.105 278.069 140.393 287.682 142.676C297.736 145.08 305.908 141.515 307.91 140.594C309.673 139.752 314.6 137.269 318.765 132.022C321.289 128.857 324.213 125.413 323.732 121.167C323.532 119.324 322.731 117.762 321.529 115.279C320.327 112.795 319.687 111.553 318.405 111.073C316.642 110.392 314.76 111.593 312.677 112.795C309.152 114.798 308.832 116.721 305.026 118.723C304.025 119.244 303.024 119.605 301.021 120.245C297.856 121.287 294.732 122.328 291.848 122.529C285.559 122.969 280.512 119.364 279.07 118.323C273.743 114.518 271.66 109.431 270.298 106.106C267.254 98.6556 267.494 91.8062 268.015 87.8006C269.898 87.4802 271.059 86.7191 271.62 86.2785C273.743 84.6363 274.264 82.3531 275.065 78.8282C275.586 76.6252 275.826 75.4636 275.265 75.023C274.104 74.1418 270.539 77.0258 269.738 77.7067C269.898 74.9829 270.298 72.7799 270.699 71.2177C271.22 69.1349 271.5 68.0534 272.221 67.2122C273.623 65.5699 275.265 65.7302 275.826 64.168C276.146 63.3268 276.106 62.1652 275.425 61.4843C274.624 60.6832 272.902 60.7232 271.42 61.8848C270.939 60.8434 269.978 60.2025 268.936 60.1625C267.895 60.1224 267.214 60.7633 267.014 60.9235C267.134 59.842 266.653 58.8406 265.852 58.4401C264.771 57.8793 263.048 58.5202 262.407 60.1625C262.448 59.9622 262.728 58.8406 262.047 57.9995Z" fill="white"/>
<path opacity="0.12" d="M259.964 57.2388C259.003 58.9211 257.801 61.4045 257 64.649C255.237 71.6987 256.679 77.5869 257.32 80.4308C264.21 109.791 261.206 110.512 266.012 117.402C267.775 119.885 279.871 136.548 297.896 134.345C312.997 132.503 321.008 118.764 322.05 116.921C322.651 118.523 323.371 121.247 322.891 124.492C322.17 129.258 319.206 132.262 318.124 133.384C317.083 134.425 315.801 135.347 313.197 137.149C310.874 138.791 308.591 140.233 307.59 140.754C302.823 143.438 295.453 144.079 290.326 143.398C276.387 141.555 268.015 128.337 264.53 122.849C256.559 110.312 255.758 97.6145 255.838 91.2858C255.077 88.7222 254.316 86.1187 253.555 83.5551C253.034 79.5896 252.994 76.3051 253.074 74.022C253.275 68.294 253.435 64.0081 256.359 60.3631C257.641 58.7609 259.043 57.7995 259.964 57.2388Z" fill="#606060"/>
<path d="M314.199 136.548C320.528 133.544 324.774 127.255 323.732 120.125C323.131 115.799 319.647 108.349 314.079 110.993C311.596 112.194 309.553 114.397 307.27 115.959C304.105 118.122 300.46 119.805 296.815 120.966C292.169 122.448 287.002 122.769 282.515 120.526C279.231 118.884 276.667 116.2 274.705 113.156C270.379 106.466 268.136 98.5755 268.656 90.6045C268.696 89.8434 267.495 89.8434 267.455 90.6045C267.014 97.3338 268.496 103.743 271.46 109.751C274.064 115.118 277.869 120.165 283.637 122.328C290.647 124.932 298.297 122.288 304.626 118.964C307.47 117.442 309.913 115.479 312.477 113.516C314.8 111.714 317.123 110.832 319.486 113.236C322.41 116.2 323.292 121.367 322.41 125.292C321.329 129.979 317.844 133.504 313.598 135.506C312.917 135.827 313.518 136.868 314.199 136.548Z" fill="#161616"/>
<path d="M268.576 91.1254C268.055 88.9223 269.617 88.3615 271.059 87.3201C271.9 86.7193 272.541 85.8781 273.142 85.037C274.664 82.8339 275.866 80.2704 276.186 77.5867C276.346 76.2648 276.627 74.182 274.824 74.1019C272.701 74.0217 271.82 76.7055 269.817 76.9057C269.056 76.9858 269.056 78.1875 269.817 78.1074C271.339 77.9472 272.101 76.9858 273.262 76.1046C273.943 75.5839 274.704 74.9831 275.065 76.1447C275.265 76.7856 274.944 77.9872 274.784 78.6281C274.504 79.99 273.903 81.3118 273.262 82.5535C272.661 83.6751 271.98 84.8367 271.059 85.758C270.218 86.6392 269.056 86.8394 268.135 87.5604C266.893 88.5218 267.094 90.164 267.414 91.4859C267.614 92.2069 268.776 91.8864 268.576 91.1254Z" fill="#161616"/>
<path d="M254.596 84.7969C253.795 79.6298 253.715 74.3425 254.516 69.1753C254.837 67.0924 255.237 64.9695 255.958 62.9667C256.399 61.725 257 60.283 257.881 59.2817C259.083 57.9598 261.446 57.2789 262.087 59.522C262.287 60.283 263.449 59.9626 263.248 59.2015C262.688 57.2789 260.845 56.2375 258.922 56.9985C256.479 57.9999 255.317 61.004 254.556 63.2872C252.313 70.2168 252.313 77.9875 253.395 85.1173C253.555 85.8784 254.717 85.5579 254.596 84.7969Z" fill="#161616"/>
<path d="M260.405 64.1284C261.366 61.7651 264.09 56.9985 267.054 60.243C267.575 60.8038 268.416 59.9626 267.895 59.4019C266.533 57.9198 264.57 57.6795 262.848 58.6809C260.925 59.7624 260.044 61.8853 259.243 63.848C258.963 64.5289 260.124 64.8494 260.405 64.1284Z" fill="#161616"/>
<path d="M265.452 65.1297C265.492 63.6076 266.093 61.9253 267.575 61.2043C268.816 60.6035 270.298 60.8839 271.14 61.9653C271.62 62.5662 272.461 61.725 271.981 61.1242C270.819 59.6822 268.736 59.3217 267.094 60.0827C265.171 61.004 264.29 63.0869 264.25 65.1297C264.21 65.8908 265.412 65.8908 265.452 65.1297Z" fill="#161616"/>
<path d="M268.936 65.5305C269.657 62.8467 272.662 60.4034 275.265 62.5664C275.866 63.047 276.707 62.2059 276.106 61.7252C272.782 59.0014 268.776 61.565 267.775 65.21C267.575 65.9711 268.736 66.2915 268.936 65.5305Z" fill="#161616"/>
<path d="M275.025 62.3658C276.307 64.1683 273.463 65.2898 272.461 66.131C271.62 66.8119 271.139 67.6932 270.779 68.6945C269.818 71.4584 269.377 74.4625 269.137 77.3465C269.057 78.1075 270.258 78.1075 270.338 77.3465C270.539 75.2236 270.859 73.1006 271.38 71.0178C271.54 70.3368 271.7 69.6559 271.941 68.9749C272.461 67.573 273.222 67.0523 274.384 66.2111C275.826 65.1697 277.348 63.4874 276.066 61.6849C275.626 61.1241 274.584 61.7249 275.025 62.3658Z" fill="#161616"/>
<path d="M253.114 83.595C253.755 86.3187 254.557 89.0024 255.558 91.6461C255.838 92.3671 257 92.0466 256.719 91.3256C255.718 88.682 254.917 85.9983 254.276 83.2745C254.116 82.5135 252.954 82.8339 253.114 83.595Z" fill="#161616"/>
<path d="M255.357 92.4072C256.879 106.186 260.284 120.326 269.537 131.061C276.907 139.592 288.603 146.081 300.139 143.958C305.587 142.957 310.554 140.233 314.519 136.428C315.08 135.907 314.239 135.026 313.678 135.587C305.747 143.197 294.451 145.2 284.397 140.674C273.583 135.747 266.012 126.494 261.726 115.559C258.842 108.149 257.4 100.298 256.519 92.4472C256.479 91.6461 255.277 91.6461 255.357 92.4072Z" fill="#161616"/>
</svg>
