<svg width="19" height="22" viewBox="0 0 19 22" fill="none" xmlns="http://www.w3.org/2000/svg">
<path d="M12.9293 5.44444C12.9293 5.44444 14.1596 4.83838 9.69702 4.83838C8.09879 4.83838 6.53645 5.31231 5.20756 6.20024C3.87868 7.08817 2.84295 8.35022 2.23133 9.82679C1.61971 11.3034 1.45969 12.9281 1.77148 14.4957C2.08328 16.0632 2.85291 17.5031 3.98303 18.6332C5.11315 19.7633 6.55301 20.5329 8.12053 20.8447C9.68806 21.1565 11.3128 20.9965 12.7894 20.3849C14.266 19.7733 15.528 18.7375 16.416 17.4086C17.3039 16.0798 17.7778 14.5174 17.7778 12.9192" stroke="#303030" stroke-width="2" stroke-miterlimit="10" stroke-linecap="round"/>
<path d="M9.69678 1L13.7372 5.0404L9.69678 9.0808" stroke="#303030" stroke-width="2" stroke-linecap="round" stroke-linejoin="round"/>
</svg>
