<svg width="609" height="480" viewBox="0 0 609 480" fill="none" xmlns="http://www.w3.org/2000/svg">
<path d="M155.936 177.367C158.407 181.869 158.451 187.209 156.068 191.754C155.671 192.504 156.818 193.166 157.215 192.416C159.819 187.429 159.775 181.604 157.083 176.705C156.642 175.911 155.538 176.617 155.936 177.367Z" fill="#161616"/>
<path d="M157.568 177.588C159.069 176.838 160.834 175.911 162.555 176.308C165.115 176.838 165.203 178.912 165.38 181.03C165.556 183.855 165.424 186.856 163.57 189.15C163.041 189.812 163.968 190.739 164.497 190.077C167.057 186.944 167.366 182.045 166.395 178.206C165.159 173.572 160.128 174.852 156.951 176.44C156.156 176.793 156.818 177.941 157.568 177.588Z" fill="#161616"/>
<path d="M157.569 192.681C160.04 192.99 162.511 192.019 164.144 190.121C164.674 189.459 163.747 188.533 163.217 189.195C161.805 190.872 159.775 191.666 157.569 191.401C156.73 191.269 156.73 192.593 157.569 192.681Z" fill="#161616"/>
<path d="M157.171 119.245C157.745 118.142 159.334 115.141 161.099 117.921C161.408 118.362 161.408 119.598 161.496 120.039C161.673 120.966 161.982 121.937 162.644 122.643C164.85 124.938 166.395 121.187 168.69 122.423C171.602 123.967 167.807 127.233 170.19 129.042C170.764 129.484 171.426 129.484 172.088 129.219C172.529 129.042 172.882 128.645 173.324 128.425C174.956 127.718 175.53 129.175 175.663 130.455C175.707 130.852 175.927 131.073 176.325 131.117C176.81 131.161 177.251 131.205 177.737 131.249C178.575 131.337 178.575 130.013 177.737 129.925C177.251 129.881 176.81 129.837 176.325 129.793C176.545 130.013 176.766 130.234 176.987 130.455C176.854 129.263 176.633 127.718 175.53 127.012C174.339 126.218 173.544 126.924 172.441 127.454C171.911 127.718 171.47 128.601 170.72 127.542C170.455 127.145 171.029 125.909 171.117 125.468C171.293 124.762 171.382 124.144 171.161 123.438C170.808 122.334 169.837 121.408 168.734 121.055C167.366 120.569 166.704 121.143 165.468 121.496C164.365 121.805 163.261 121.716 162.864 120.525C162.732 120.084 162.688 119.554 162.644 119.113C162.511 118.407 162.423 117.656 162.07 116.994C160.26 113.684 157.127 116.465 156.024 118.716C155.627 119.333 156.774 119.995 157.171 119.245Z" fill="#161616"/>
<path d="M165.733 115.141C166.792 114.126 167.763 113.684 168.91 114.655C169.837 115.45 169.661 115.715 169.925 116.774C170.102 117.392 170.278 117.965 170.808 118.407C171.47 118.98 172.22 118.98 173.059 118.892C173.853 118.804 174.78 118.274 175.442 119.113C175.751 119.51 175.707 120.393 175.707 120.878C175.751 122.202 175.751 123.791 177.251 124.276C177.693 124.409 178.178 124.188 178.575 124.32C179.105 124.1 179.325 124.232 179.37 124.806C179.546 125.159 179.634 125.512 179.59 125.953C179.811 126.968 180.208 127.718 181.002 128.425C181.62 128.998 182.547 128.072 181.929 127.498C180.605 126.262 181.532 124.541 180.429 123.438C179.281 122.29 177.472 123.967 177.075 121.849C176.766 120.216 177.384 118.009 175.221 117.436C173.677 117.038 172.044 118.583 171.205 116.465C170.852 115.582 170.984 114.611 170.367 113.773C168.91 111.875 166.218 112.846 164.762 114.214C164.144 114.788 165.115 115.759 165.733 115.141Z" fill="#161616"/>
<path d="M328.316 197.182C326.992 197.05 328.978 194.446 329.375 194.226C330.434 193.652 331.67 193.961 332.464 194.799C334.185 196.653 332.729 199.389 330.39 199.654C329.551 199.742 329.551 201.066 330.39 200.978C332.332 200.757 334.053 199.477 334.494 197.536C334.936 195.638 333.788 193.608 332.023 192.858C330.302 192.151 328.404 192.813 327.389 194.358C326.506 195.682 326.286 198.33 328.36 198.506C329.154 198.595 329.154 197.271 328.316 197.182Z" fill="#161616"/>
<path d="M319.401 194.49C318.474 193.652 319.578 191.975 320.637 192.902C321.74 193.828 320.24 195.108 319.225 194.358C318.563 193.828 317.901 194.976 318.563 195.505C319.489 196.212 320.902 195.991 321.74 195.152C322.711 194.182 322.49 192.681 321.475 191.843C320.46 191.004 319.004 191.048 318.21 192.151C317.503 193.122 317.592 194.535 318.474 195.373C319.092 195.991 320.063 195.064 319.401 194.49Z" fill="#161616"/>
<path d="M472.496 137.781C472.937 145.989 468.833 153.889 461.904 158.302C461.198 158.743 461.86 159.891 462.566 159.449C469.892 154.816 474.261 146.475 473.82 137.781C473.775 136.942 472.452 136.942 472.496 137.781Z" fill="#161616"/>
<path d="M473.378 138.751C477.615 141.841 475.894 147.446 473.555 151.108C471.348 154.595 467.773 158.743 463.184 158.037C462.345 157.905 461.992 159.185 462.831 159.317C468.347 160.111 472.54 155.478 475.099 151.153C477.659 146.872 478.63 140.958 474.04 137.604C473.334 137.119 472.672 138.266 473.378 138.751Z" fill="#161616"/>
<path d="M101.874 99.4739C104.654 104.064 106.331 109.139 106.728 114.479C106.816 115.317 108.14 115.317 108.052 114.479C107.611 108.874 105.934 103.622 103.021 98.8119C102.536 98.0617 101.388 98.7236 101.874 99.4739Z" fill="#E8E8E8"/>
<path d="M107.258 98.0175C109.553 102.166 110.833 106.667 111.142 111.39C111.186 112.228 112.51 112.228 112.465 111.39C112.157 106.447 110.788 101.725 108.405 97.3555C108.008 96.6053 106.861 97.2673 107.258 98.0175Z" fill="#E8E8E8"/>
<path d="M101.521 107.947C105.36 105.432 109.685 104.108 114.319 104.02C115.157 104.02 115.157 102.696 114.319 102.696C109.508 102.784 104.919 104.196 100.859 106.844C100.152 107.285 100.814 108.433 101.521 107.947Z" fill="#E8E8E8"/>
<path d="M101.388 113.331C106.199 110.419 111.45 108.565 117.011 107.727C117.849 107.594 117.496 106.314 116.658 106.447C110.965 107.285 105.625 109.227 100.726 112.184C100.02 112.625 100.682 113.773 101.388 113.331Z" fill="#E8E8E8"/>
<path d="M360.532 135.089C358.502 136.104 357.708 138.752 359.429 140.473C360.356 141.399 361.15 141.135 362.253 141.488C362.96 141.708 363.754 142.15 363.622 142.856C363.533 143.341 363.048 143.738 362.783 144.136C362.342 144.709 361.812 145.371 361.636 146.077C361.459 146.916 361.68 147.754 362.342 148.328C363.313 149.167 364.592 148.637 365.652 149.167C367.858 150.226 363.842 154.86 367.24 155.742C368.079 155.963 368.432 154.683 367.593 154.463C366.181 154.11 367.946 151.417 368.079 150.579C368.167 149.829 368.035 149.078 367.461 148.549C365.961 147.092 361.547 148.637 363.798 144.93C364.504 143.783 365.784 142.37 364.946 140.87C364.681 140.384 364.239 140.12 363.71 139.987C363.18 139.899 362.342 139.987 361.812 139.943C359.473 139.811 359.208 137.207 361.194 136.192C361.944 135.883 361.283 134.735 360.532 135.089Z" fill="#E8E8E8"/>
<path d="M370.33 142.503C368.873 143.076 368.829 144.665 369.712 145.857C370.285 146.695 371.212 146.872 371.962 147.446C373.816 148.814 372.183 149.961 371.874 151.55C371.345 154.286 374.257 153.359 375.096 155.125C375.802 156.581 375.537 158.214 377.347 158.876C378.141 159.185 378.494 157.905 377.7 157.596C376.42 157.155 376.596 154.727 375.89 153.756C375.67 153.403 375.361 153.183 375.052 152.918C374.875 152.786 374.61 152.83 374.478 152.741C374.169 152.697 373.948 152.477 373.86 152.035C373.242 151.638 373.154 151.241 373.684 150.8C374.081 149.564 374.875 148.814 374.037 147.534C373.728 147.048 373.154 146.695 372.669 146.386C372.271 146.122 369.403 144.356 370.727 143.827C371.477 143.474 371.124 142.194 370.33 142.503Z" fill="#E8E8E8"/>
<path d="M455.593 231.606C452.371 229.311 452.901 224.5 456.387 222.735C459.035 221.411 462.654 222.647 464.022 225.251C465.39 227.854 464.199 231.517 461.595 232.885C458.859 234.298 455.461 233.062 453.916 230.546C453.475 229.84 452.327 230.502 452.769 231.208C454.755 234.518 459.344 235.975 462.742 233.768C465.964 231.65 466.979 226.751 464.596 223.662C462.257 220.661 457.579 219.955 454.622 222.382C451.18 225.162 451.445 230.237 454.975 232.797C455.637 233.238 456.299 232.091 455.593 231.606Z" fill="#E8E8E8"/>
<path d="M150.993 244.316C151.478 242.727 152.184 242.286 153.023 243.036C153.243 243.124 153.464 243.256 153.641 243.345C153.95 243.433 154.347 243.521 154.656 243.477C155.318 243.389 155.847 242.992 156.156 242.462C157.259 240.697 156.024 238.976 154.92 237.608C154.347 236.946 153.288 236.063 153.42 235.048C153.596 233.106 154.744 233.9 155.715 233.768C156.421 233.68 157.039 233.415 157.392 232.753C157.745 232.179 157.657 231.429 157.568 230.811C157.524 230.458 157.392 230.061 157.392 229.708C157.083 228.781 157.524 228.207 158.716 227.987C159.29 228.384 159.775 228.869 160.172 229.487C160.658 230.193 161.805 229.531 161.32 228.825C160.128 227.148 156.597 224.853 156.024 228.34C155.759 230.105 157.392 231.959 154.788 232.4C153.508 232.621 152.626 232.621 152.228 234.121C151.875 235.357 152.361 236.548 153.111 237.519C153.464 237.961 153.861 238.358 154.214 238.755C154.656 239.196 154.965 239.682 155.185 240.255C154.656 240.785 154.17 241.315 153.641 241.844C153.243 241.932 152.228 241.094 151.655 241.05C149.095 240.873 147.727 244.316 150.287 245.419C151.125 245.772 151.787 244.625 150.993 244.316Z" fill="#E8E8E8"/>
<path d="M161.761 242.418C161.055 241.27 159.952 239.505 160.437 238.049C160.79 236.946 162.291 236.46 162.952 235.577C163.968 234.209 163.835 232.4 162.908 231.032C162.732 231.385 162.511 231.694 162.335 232.047C164.85 232.223 166.969 230.723 167.719 228.296C167.984 227.457 166.704 227.148 166.439 227.943C165.865 229.796 164.276 230.855 162.335 230.723C161.849 230.679 161.496 231.297 161.761 231.738C162.335 232.576 162.555 233.768 161.982 234.695C161.452 235.489 160.746 235.533 160.172 236.107C159.643 236.637 159.29 237.166 159.157 237.961C158.804 239.77 159.775 241.579 160.658 243.08C161.055 243.83 162.202 243.168 161.761 242.418Z" fill="#E8E8E8"/>
<path d="M296.541 14.3871C298.88 17.0791 300.336 20.2125 300.954 23.699C301.086 24.5375 302.366 24.1844 302.234 23.3459C301.572 19.6388 299.939 16.2847 297.467 13.4162C296.894 12.7983 295.967 13.7251 296.541 14.3871Z" fill="#E8E8E8"/>
<path d="M297.688 14.5195C299.189 13.1514 305.191 7.76728 307.397 9.31191C308.501 10.1063 309.471 11.9157 310.178 13.1073C311.06 14.6078 311.766 16.1965 312.34 17.8294C312.605 18.6238 313.885 18.2707 313.62 17.4764C312.87 15.4022 311.943 13.3721 310.751 11.5185C310.001 10.327 308.854 8.29687 307.485 7.72315C305.941 7.06117 304.043 8.42927 302.763 9.17952C300.601 10.4152 298.615 11.9157 296.761 13.5927C296.144 14.1664 297.07 15.0932 297.688 14.5195Z" fill="#E8E8E8"/>
<path d="M302.366 24.5375C305.808 21.6248 309.56 19.2417 313.708 17.4322C314.503 17.0792 313.796 15.9317 313.046 16.2848C308.809 18.1384 304.97 20.6098 301.439 23.6107C300.777 24.1403 301.704 25.0671 302.366 24.5375Z" fill="#E8E8E8"/>
<path d="M310.045 12.0922C311.722 10.68 315.473 7.1053 317.548 9.44431C319.048 11.1213 320.019 13.8575 320.902 15.8876C321.255 16.682 322.402 15.9759 322.049 15.2256C321.211 13.3279 320.328 11.5185 319.269 9.75323C318.739 8.82646 318.077 7.41423 316.974 7.01704C315.694 6.57572 314.326 7.50249 313.311 8.12034C311.81 9.00299 310.442 10.018 309.118 11.1213C308.456 11.7392 309.427 12.666 310.045 12.0922Z" fill="#E8E8E8"/>
<path d="M306.779 20.1684C308.854 21.0952 310.619 22.3309 312.252 23.9197C312.561 24.2286 313.046 24.1403 313.311 23.7873C315.253 21.0069 317.812 18.8886 320.902 17.4322C321.696 17.0792 320.99 15.9317 320.24 16.2848C316.93 17.8294 314.238 20.1243 312.163 23.0812C312.516 23.037 312.87 22.9929 313.223 22.9488C311.546 21.2717 309.648 19.9919 307.485 19.021C306.647 18.7121 305.985 19.8154 306.779 20.1684Z" fill="#E8E8E8"/>
<path d="M316.4 69.2433C316.312 68.7579 316.179 68.2724 316.091 67.787C316.488 67.3898 316.886 67.0367 317.371 66.7719C317.636 66.5954 317.945 66.4189 318.209 66.1982C318.739 65.7569 319.092 65.3156 319.357 64.6977C319.666 63.9033 319.578 63.1531 319.489 62.3146C319.445 62.0498 319.401 61.7409 319.357 61.4761C319.313 61.1671 319.489 57.5924 320.902 58.7399C321.564 59.2695 322.49 58.3427 321.828 57.8131C320.857 57.0187 319.842 57.1511 318.96 57.9896C317.459 59.446 318.165 61.1671 318.254 62.9324C318.386 65.5804 314.944 65.7127 314.635 68.14C314.502 69.2433 314.944 70.2584 316.091 70.479C316.886 70.6556 317.239 69.3757 316.4 69.2433Z" fill="#FF9BC5"/>
<path d="M321.255 65.5804C322.314 66.4189 323.814 65.8011 324.035 64.433C324.256 63.2414 323.461 62.1381 323.55 60.9465C323.682 59.3136 324.785 57.9014 326.286 57.3277C327.08 57.0188 326.727 55.7389 325.933 56.0479C324.476 56.5774 323.329 57.5483 322.711 59.0047C322.402 59.6667 322.226 60.4169 322.226 61.1672C322.226 61.5202 322.27 61.8733 322.314 62.1822C322.314 62.1822 322.976 65.2273 322.226 64.6095C321.519 64.124 320.593 65.0508 321.255 65.5804Z" fill="#FF9BC5"/>
<path d="M207.394 211.216C206.599 210.775 206.511 209.76 207.085 209.098C207.659 208.436 208.718 208.171 209.556 208.304C210.262 208.436 211.057 208.789 211.366 209.495C211.719 210.29 211.189 211.658 210.13 211.525C209.291 211.393 208.938 212.673 209.777 212.805C211.277 213.026 212.601 212.011 212.822 210.466C213.087 208.833 211.763 207.509 210.262 207.112C208.718 206.671 206.776 207.156 205.849 208.569C205.011 209.848 205.364 211.658 206.776 212.364C207.482 212.761 208.144 211.614 207.394 211.216Z" fill="#FF9BC5"/>
<path d="M137.665 55.0328C137.93 54.1501 138.195 53.2233 138.415 52.3407C138.68 52.429 138.945 52.5172 139.21 52.6055C139.563 52.6496 139.916 52.8703 140.269 52.9586C140.754 53.0909 141.328 53.1351 141.813 53.0027C142.961 52.6055 143.314 51.5022 143.314 50.3989C143.314 49.2956 142.917 48.104 143.799 47.2214C144.505 46.5153 145.697 46.2505 146.624 46.4711C149.669 47.1772 149.36 51.0167 148.036 53.091C147.595 53.7971 148.742 54.459 149.183 53.7529C150.64 51.4139 150.993 47.8834 148.61 45.9857C146.844 44.5734 143.843 44.8382 142.475 46.6918C141.549 47.9275 142.166 49.0308 141.902 50.443C141.46 52.782 138.15 50.6195 136.65 51.1491C133.825 52.1642 134.664 55.7389 137.18 56.4009C138.106 56.5333 138.459 55.2534 137.665 55.0328Z" fill="#FF9BC5"/>
<path d="M424.7 248.596C425.627 247.89 426.642 247.846 427.745 248.42C428.231 248.685 428.893 248.243 428.716 247.67C428.319 246.875 428.407 246.169 429.069 245.551C429.378 244.183 430.084 244.095 431.144 245.242C431.452 245.86 432.335 245.507 432.379 244.889C432.379 244.316 432.423 243.698 432.512 243.124C432.644 241.712 433.571 241.359 435.204 242.021C435.557 242.815 436.66 242.109 436.351 241.359C435.822 240.123 434.409 239.726 433.174 240.211C431.32 240.962 431.099 243.168 431.055 244.889C431.452 244.757 431.894 244.669 432.291 244.536C431.673 243.212 430.084 242.727 428.76 243.389C427.083 244.271 426.995 246.346 427.436 247.979C427.745 247.714 428.098 247.493 428.407 247.228C426.907 246.478 425.495 246.522 424.038 247.405C423.332 247.89 423.994 249.038 424.7 248.596Z" fill="#FF9BC5"/>
<path d="M390.41 65.7569C388.026 66.4631 386.349 68.4931 386.04 71.0087C385.732 73.3918 387.144 76.3487 389.792 76.6135C391.734 76.79 393.675 74.5834 392.484 72.774C391.204 70.788 388.733 72.2444 387.718 73.6566C384.849 77.7609 387.409 85.793 393.322 83.8953C394.955 83.3657 396.985 81.3797 396.059 79.4821C394.911 77.143 392.351 79.6586 391.689 80.9825C390.321 83.7187 389.968 87.6465 392.793 89.5883C394.999 91.0888 398.044 90.1179 398.751 87.5141C398.927 86.9404 398.089 86.3225 397.647 86.8521C394.602 90.6916 396.941 95.9875 401.884 96.164C402.722 96.2081 402.722 94.8842 401.884 94.84C398.177 94.7076 396.235 90.7358 398.574 87.823C398.221 87.6024 397.824 87.3817 397.471 87.161C396.809 89.6766 393.72 89.2794 392.528 87.4258C391.469 85.7047 391.822 83.3657 392.793 81.6445C393.013 81.2032 394.205 79.129 394.911 80.453C395.264 81.1591 393.94 82.1741 393.499 82.4389C392.131 83.1891 390.321 82.9685 389.262 81.8211C388.159 80.6736 387.806 78.9083 387.938 77.3637C388.026 76.5252 388.203 75.5543 388.6 74.8482C388.777 74.5834 388.997 74.3186 389.174 74.0538C390.277 72.9946 390.233 73.3035 388.997 75.0247C388.115 75.113 387.364 72.6857 387.32 72.112C387.276 71.5383 387.364 70.9645 387.497 70.435C387.938 68.8021 389.13 67.5664 390.763 67.0809C391.601 66.8161 391.248 65.5363 390.41 65.7569Z" fill="#FF9BC5"/>
<path d="M152.979 92.7217C152.625 91.6625 152.802 90.6475 153.596 89.809C154.479 88.8822 155.538 89.0146 156.642 89.1911C157.436 89.3235 158.054 89.4118 158.804 88.9705C159.378 88.6174 159.775 87.9554 160.04 87.3817C160.216 86.9404 160.349 86.499 160.437 86.0577C160.481 85.7488 160.569 85.4399 160.613 85.1751C160.702 84.1159 161.452 83.6746 162.82 83.8511C162.776 84.6455 163.879 84.6896 164.1 84.0276C164.453 83.0126 164.894 81.9534 165.821 81.3356C167.189 80.4088 169.131 80.5853 169.396 82.483C169.528 83.3215 170.764 82.9685 170.676 82.13C170.411 80.3205 168.69 79.1731 166.88 79.4379C164.674 79.7468 163.482 81.821 162.864 83.7187C163.305 83.7629 163.747 83.8511 164.144 83.8953C164.232 82.5713 162.997 81.7328 161.717 81.9093C159.643 82.1741 159.554 84.5131 159.113 86.0577C158.804 87.161 158.539 87.9995 156.995 87.9554C156.553 87.9554 156.024 87.6465 155.538 87.6465C154.7 87.6465 153.861 87.9554 153.199 88.4409C151.743 89.5442 151.125 91.3977 151.699 93.1189C151.964 93.8691 153.243 93.5602 152.979 92.7217Z" fill="#5CC6B3"/>
<path d="M400.03 135.53C403.199 135.53 405.768 132.783 405.768 129.395C405.768 126.008 403.199 123.261 400.03 123.261C396.862 123.261 394.293 126.008 394.293 129.395C394.293 132.783 396.862 135.53 400.03 135.53Z" fill="#5CC6B3"/>
<path d="M89.6933 136.898C91.7894 136.898 93.4887 135.218 93.4887 133.147C93.4887 131.075 91.7894 129.396 89.6933 129.396C87.5972 129.396 85.8979 131.075 85.8979 133.147C85.8979 135.218 87.5972 136.898 89.6933 136.898Z" fill="#5CC6B3"/>
<path d="M145.874 296.656C147.628 296.656 149.051 295.115 149.051 293.214C149.051 291.313 147.628 289.772 145.874 289.772C144.119 289.772 142.696 291.313 142.696 293.214C142.696 295.115 144.119 296.656 145.874 296.656Z" fill="#5CC6B3"/>
<path d="M393.367 143.165C397.047 143.165 400.031 140.339 400.031 136.854C400.031 133.368 397.047 130.543 393.367 130.543C389.686 130.543 386.703 133.368 386.703 136.854C386.703 140.339 389.686 143.165 393.367 143.165Z" fill="#FF9BC5"/>
<path d="M261.456 7.59073C263.332 7.59073 264.854 5.89149 264.854 3.79537C264.854 1.69924 263.332 0 261.456 0C259.579 0 258.057 1.69924 258.057 3.79537C258.057 5.89149 259.579 7.59073 261.456 7.59073Z" fill="#FF9BC5"/>
<path d="M447.958 209.893C450.591 209.893 452.724 207.522 452.724 204.597C452.724 201.672 450.591 199.301 447.958 199.301C445.326 199.301 443.192 201.672 443.192 204.597C443.192 207.522 445.326 209.893 447.958 209.893Z" fill="#FF9BC5"/>
<path d="M76.3653 182.531C81.63 182.531 85.8979 178.164 85.8979 172.777C85.8979 167.391 81.63 163.024 76.3653 163.024C71.1006 163.024 66.8328 167.391 66.8328 172.777C66.8328 178.164 71.1006 182.531 76.3653 182.531Z" fill="#FF9BC5"/>
<path d="M142.784 432.539C134.222 419.653 122.748 405.619 124.249 389.202C124.028 389.422 123.807 389.643 123.587 389.864C124.91 389.819 126.058 390.04 127.294 390.57C127.779 390.79 128.485 390.437 128.265 389.819C127.823 388.584 127.029 387.878 126.146 386.951C124.513 385.23 124.381 383.464 124.469 381.214C124.602 377.639 123.984 374.373 122.483 371.107C122.351 371.416 122.218 371.769 122.086 372.078C123.233 371.681 124.381 371.284 125.528 370.887C125.837 370.754 126.102 370.445 125.97 370.092C123.145 361.884 124.557 352.66 125.175 344.231C125.837 335.228 126.72 326.269 127.779 317.31C127.426 317.487 127.117 317.707 126.764 317.884C132.678 321.679 135.855 328.167 138.327 334.478C141.151 341.671 143.578 348.997 145.608 356.455C149.845 371.813 152.405 387.657 153.287 403.589C153.773 412.459 153.729 421.374 153.155 430.244C153.111 431.083 154.435 431.083 154.479 430.244C156.553 397.587 151.566 364.267 139.474 333.816C136.87 327.24 133.516 320.664 127.426 316.737C126.941 316.428 126.499 316.825 126.411 317.31C125.308 326.578 124.425 335.846 123.763 345.113C123.145 353.454 121.91 362.369 124.646 370.445C124.778 370.181 124.955 369.916 125.087 369.651C123.94 370.048 122.792 370.445 121.645 370.843C121.203 370.975 121.071 371.416 121.248 371.813C122.13 373.755 122.792 375.785 123.013 377.948C123.189 379.757 122.925 381.523 123.057 383.332C123.145 384.568 123.366 385.715 124.116 386.774C124.999 388.01 126.411 388.804 126.941 390.261C127.25 389.996 127.603 389.775 127.911 389.51C126.499 388.893 125.087 388.584 123.542 388.628C123.145 388.628 122.925 388.937 122.88 389.29C121.38 405.972 132.943 420.226 141.637 433.29C142.122 433.907 143.269 433.245 142.784 432.539Z" fill="#E8E8E8"/>
<path d="M127.823 320.399C137.885 347.408 143.931 375.874 145.653 404.648C146.138 412.768 146.27 420.933 146.094 429.097C146.094 429.935 147.418 429.935 147.418 429.097C148.08 400.323 144.505 371.46 136.782 343.701C134.575 335.713 131.972 327.814 129.103 320.046C128.838 319.252 127.558 319.605 127.823 320.399Z" fill="#E8E8E8"/>
<path d="M124.248 348.291C130.78 352.351 136.12 357.956 139.871 364.708C140.268 365.458 141.416 364.796 141.019 364.046C137.179 357.117 131.663 351.336 124.91 347.144C124.204 346.702 123.542 347.85 124.248 348.291Z" fill="#E8E8E8"/>
<path d="M125.573 332.006C129.28 334.787 132.281 338.229 134.62 342.201C135.061 342.951 136.208 342.289 135.767 341.539C133.296 337.346 130.118 333.772 126.235 330.859C125.573 330.373 124.911 331.521 125.573 332.006Z" fill="#E8E8E8"/>
<path d="M144.991 384.568C145.785 379.095 147.33 373.755 149.624 368.724C149.978 367.974 148.83 367.268 148.477 368.062C146.138 373.226 144.549 378.61 143.711 384.259C143.578 385.053 144.858 385.406 144.991 384.568Z" fill="#E8E8E8"/>
<path d="M148.168 359.501C152.228 346.04 159.245 333.86 166.262 321.768C165.865 321.723 165.468 321.679 165.071 321.591C168.69 339.244 171.691 356.985 173.986 374.859C174.206 374.638 174.427 374.417 174.648 374.197C173.103 374.108 171.558 374.02 170.014 373.932C169.484 373.888 169.087 374.726 169.528 375.079C172.176 377.109 171.911 380.64 171.602 383.641C171.205 387.613 170.764 391.541 170.323 395.512C170.587 395.292 170.896 395.071 171.161 394.895C169.97 394.63 168.822 394.542 167.586 394.542C167.101 394.542 166.748 395.115 167.013 395.557C170.411 401.382 165.115 407.472 162.644 412.503C160.172 417.579 158.583 423.051 157.789 428.656C157.657 429.494 158.937 429.847 159.069 429.009C159.996 422.212 162.202 415.769 165.6 409.811C168.16 405.31 171.117 399.97 168.16 394.895C167.984 395.248 167.763 395.557 167.586 395.91C168.69 395.865 169.749 395.954 170.808 396.219C171.249 396.307 171.602 396.042 171.647 395.601C172.132 391.055 172.838 386.509 173.059 381.964C173.191 379.139 172.794 376.094 170.455 374.241C170.278 374.638 170.146 374.991 169.97 375.388C171.514 375.476 173.059 375.565 174.603 375.653C174.912 375.653 175.31 375.344 175.265 374.991C172.926 357.029 169.925 339.112 166.262 321.37C166.13 320.797 165.336 320.753 165.071 321.194C158.01 333.374 150.949 345.687 146.844 359.236C146.668 359.942 147.948 360.295 148.168 359.501Z" fill="#E8E8E8"/>
<path d="M165.027 323.224C160.569 349.527 157.524 376.094 155.891 402.75C155.847 403.589 157.171 403.589 157.215 402.75C158.804 376.227 161.849 349.792 166.262 323.577C166.439 322.739 165.159 322.385 165.027 323.224Z" fill="#E8E8E8"/>
<path d="M151.655 349.924C153.464 356.058 155.583 362.06 157.966 367.974C158.275 368.768 159.554 368.415 159.245 367.621C156.862 361.707 154.788 355.661 152.935 349.571C152.67 348.732 151.39 349.085 151.655 349.924Z" fill="#E8E8E8"/>
<path d="M0.810889 375.962C15.9482 370.975 32.5419 367.709 48.5177 368.548C56.8146 368.989 64.7142 371.549 72.5698 373.932C80.2046 376.227 87.8395 378.61 95.5185 380.816C104.168 383.288 112.907 385.274 121.865 385.892C122.704 385.936 122.704 384.612 121.865 384.568C105.36 383.508 89.4283 377.683 73.7172 372.917C66.2589 370.666 58.8447 368.15 51.0333 367.4C43.0012 366.65 34.8368 367.4 26.893 368.504C17.89 369.783 9.01947 371.858 0.413702 374.682C-0.336544 374.947 0.0165104 376.227 0.810889 375.962Z" fill="#E8E8E8"/>
<path d="M47.8998 368.018C60.7864 365.194 73.7171 362.369 86.4272 358.706C98.9166 355.087 111.097 349.394 124.116 347.806C124.955 347.717 124.955 346.393 124.116 346.482C111.274 348.07 99.2696 353.587 86.9126 357.206C73.9819 361.001 60.7864 363.87 47.5909 366.782C46.7082 366.915 47.0613 368.195 47.8998 368.018Z" fill="#E8E8E8"/>
<path d="M143.225 344.805C146.756 344.584 150.331 344.54 153.861 344.672C154.7 344.716 154.7 343.392 153.861 343.348C150.286 343.216 146.756 343.26 143.225 343.481C142.387 343.569 142.387 344.893 143.225 344.805Z" fill="#E8E8E8"/>
<path d="M17.7576 428.17C32.586 426.052 47.282 429.803 61.8456 432.098C68.7743 433.201 75.7472 433.863 82.7642 433.687C90.6198 433.466 98.4753 432.672 106.243 434.04C107.081 434.172 107.434 432.892 106.596 432.76C98.9607 431.436 91.3259 432.098 83.6027 432.363C75.8355 432.628 68.2006 431.833 60.5658 430.597C46.2669 428.258 31.924 424.86 17.4045 426.935C16.566 427.023 16.9191 428.303 17.7576 428.17Z" fill="#E8E8E8"/>
<path d="M105.934 445.47C106.11 444.102 111.362 444.72 112.289 444.72C113.436 444.72 117.673 444.058 118.247 445.293C118.335 444.985 118.423 444.676 118.467 444.367C116.305 445.823 113.922 446.441 111.318 446.264C110.479 446.22 110.479 447.544 111.318 447.588C114.142 447.765 116.746 447.059 119.129 445.514C119.438 445.293 119.526 444.94 119.35 444.587C118.953 443.749 118.291 443.528 117.408 443.396C115.334 443.087 113.039 443.352 110.965 443.352C108.979 443.352 104.875 442.601 104.566 445.426C104.477 446.309 105.845 446.309 105.934 445.47Z" fill="#E8E8E8"/>
<path d="M106.904 423.625C106.066 424.066 105.183 423.933 104.301 423.227C104.257 423.58 104.212 423.933 104.168 424.287C105.272 423.448 106.551 422.918 107.964 422.963C109.111 423.007 110.126 423.625 111.274 423.669C112.333 423.713 113.304 423.272 114.363 423.139C116.04 422.874 117.584 423.227 119.085 424.066C119.835 424.463 120.497 423.36 119.747 422.918C118.644 422.301 117.54 421.859 116.26 421.771C114.451 421.594 112.774 422.565 111.053 422.345C109.641 422.168 108.493 421.594 106.993 421.727C105.669 421.859 104.521 422.389 103.462 423.183C103.153 423.404 102.977 423.933 103.33 424.242C104.521 425.213 105.757 425.522 107.213 424.993C108.052 424.64 107.699 423.36 106.904 423.625Z" fill="#E8E8E8"/>
<path d="M40.0005 442.337C42.2512 445.117 45.2522 442.513 47.7677 441.984C49.8419 441.542 51.4748 442.778 53.5049 442.778C55.6674 442.778 58.0064 441.763 59.9041 443.131C60.6102 443.616 61.2722 442.469 60.566 441.984C59.4186 441.145 58.1829 441.013 56.7707 441.101C54.6523 441.277 52.9753 441.542 50.857 440.88C49.4006 440.395 48.1649 440.395 46.7085 440.924C44.9433 441.586 42.4277 443.352 40.839 441.41C40.3976 440.748 39.4267 441.719 40.0005 442.337Z" fill="#E8E8E8"/>
<path d="M182.547 433.51C185.46 432.363 187.799 432.716 190.844 433.069C192.742 433.29 194.066 432.628 195.743 431.877C197.508 431.083 198.7 431.48 200.288 432.363C200.95 432.716 201.568 433.025 202.318 433.157C204.569 433.598 207.614 432.098 209.512 433.731C210.174 434.305 211.101 433.334 210.439 432.804C208.762 431.392 206.952 431.701 204.878 431.877C203.157 432.01 201.833 431.701 200.377 430.862C199.494 430.377 198.655 429.935 197.64 429.935C196.714 429.935 195.875 430.333 195.037 430.686C193.051 431.568 191.859 431.833 189.652 431.48C187.049 431.083 184.666 431.215 182.194 432.186C181.4 432.539 181.753 433.819 182.547 433.51Z" fill="#E8E8E8"/>
<path d="M472.981 362.634C488.648 355.44 504.403 348.203 520.908 343.172C537.546 338.141 554.846 335.669 572.234 336.066C582.12 336.287 592.005 337.434 601.714 339.42C602.553 339.597 602.906 338.317 602.067 338.141C584.768 334.566 566.982 333.772 549.462 335.846C532.074 337.876 515.436 342.995 499.24 349.571C490.148 353.278 481.189 357.382 472.275 361.487C471.569 361.84 472.231 362.987 472.981 362.634Z" fill="#E8E8E8"/>
<path d="M544.696 364.09C555.023 360.339 565.614 357.426 576.427 355.485C581.988 354.47 587.548 353.763 593.197 353.234C597.257 352.881 604.804 351.16 607.717 355.043C608.202 355.705 609.394 355.043 608.864 354.381C606.348 351.027 601.979 351.336 598.184 351.557C592.182 351.91 586.136 352.572 580.178 353.499C567.953 355.396 555.95 358.574 544.343 362.81C543.548 363.119 543.901 364.399 544.696 364.09Z" fill="#E8E8E8"/>
<path d="M473.025 335.757C485.117 333.11 497.783 334.522 508.948 339.862C509.699 340.215 510.405 339.067 509.61 338.714C498.092 333.242 485.117 331.741 472.672 334.478C471.833 334.654 472.186 335.934 473.025 335.757Z" fill="#E8E8E8"/>
<path d="M499.99 396.483C501.887 394.233 504.888 396.792 506.874 397.587C508.507 398.249 509.787 398.072 511.376 397.366C513.935 396.219 516.01 397.234 518.569 397.145C521.217 397.057 523.38 394.541 525.807 396.748C526.425 397.322 527.396 396.395 526.734 395.821C525.145 394.409 523.424 394.144 521.438 394.85C520.423 395.248 519.673 395.733 518.525 395.821C517.643 395.865 516.76 395.645 515.877 395.557C514.818 395.424 513.759 395.248 512.744 395.424C511.067 395.733 509.743 397.057 507.889 396.572C506.565 396.219 505.462 395.292 504.182 394.762C502.373 394.056 500.299 393.924 498.975 395.512C498.489 396.219 499.416 397.145 499.99 396.483Z" fill="#E8E8E8"/>
<path d="M550.874 430.377C548.05 421.374 546.77 412.018 547.123 402.574C546.77 402.75 546.461 402.971 546.108 403.147C547.079 403.633 548.094 404.118 549.065 404.604C549.55 404.824 550.036 404.56 550.08 404.03C550.698 394.939 552.728 386.068 556.038 377.551C555.729 377.683 555.376 377.815 555.067 377.948C555.596 378.213 556.126 378.477 556.7 378.786C556.92 378.919 557.318 378.919 557.494 378.698C560.936 374.373 564.732 370.401 568.968 366.827C568.615 366.782 568.262 366.738 567.909 366.694C571.043 371.063 570.822 376.8 570.601 381.92C570.337 387.613 569.586 393.218 568.306 398.778C565.791 409.546 561.422 419.785 555.376 429.053C554.89 429.759 556.038 430.421 556.523 429.715C562.922 419.962 567.512 409.061 569.939 397.631C571.131 392.07 571.837 386.421 572.014 380.772C572.146 375.741 572.19 370.269 569.101 365.988C568.836 365.635 568.395 365.547 568.042 365.856C563.805 369.43 560.01 373.358 556.567 377.727C556.832 377.683 557.097 377.639 557.362 377.639C556.832 377.374 556.302 377.109 555.729 376.8C555.332 376.58 554.934 376.8 554.758 377.198C551.404 385.803 549.418 394.806 548.756 404.03C549.109 403.853 549.418 403.633 549.771 403.456C548.8 402.971 547.785 402.485 546.814 402C546.373 401.779 545.843 402.044 545.799 402.574C545.446 412.106 546.726 421.595 549.594 430.686C549.859 431.524 551.139 431.171 550.874 430.377Z" fill="#E8E8E8"/>
<path d="M570.513 396.925C573.514 390.481 577.044 384.303 581.016 378.433C580.752 378.522 580.531 378.654 580.266 378.742C582.826 379.404 584.238 377.065 585.562 375.3C587.989 372.034 591.034 369.43 594.609 367.444C594.3 367.312 593.947 367.18 593.638 367.047C597.654 379.581 595.095 392.556 587.592 403.236C584.062 408.267 580.001 413.077 575.853 417.623C571.704 422.08 567.159 426.096 561.686 428.876C560.936 429.274 561.598 430.421 562.348 430.024C567.909 427.199 572.587 423.095 576.78 418.549C581.193 413.739 585.518 408.664 589.181 403.28C596.551 392.467 598.934 379.272 594.918 366.738C594.786 366.341 594.344 366.12 593.947 366.341C591.564 367.665 589.357 369.254 587.371 371.196C586.489 372.078 585.65 373.049 584.856 374.064C583.885 375.3 582.605 377.992 580.619 377.507C580.31 377.418 580.045 377.551 579.869 377.815C575.897 383.685 572.366 389.864 569.365 396.307C569.012 397.013 570.16 397.719 570.513 396.925Z" fill="#E8E8E8"/>
<path d="M564.29 374.55C561.245 382.846 557.538 391.187 555.552 399.837C553.522 408.664 552.286 417.711 550.786 426.626C550.654 427.464 551.933 427.817 552.066 426.979C553.61 418.064 554.802 408.973 556.832 400.19C558.818 391.541 562.525 383.244 565.57 374.903C565.879 374.108 564.599 373.755 564.29 374.55Z" fill="#E8E8E8"/>
<path d="M587.548 381.125C582.649 388.981 577.751 396.836 572.852 404.648C568.395 411.797 563.584 418.814 560.495 426.67C560.186 427.464 561.466 427.817 561.775 427.023C564.952 419.035 569.939 411.841 574.485 404.56C579.207 396.969 583.973 389.378 588.695 381.743C589.137 381.037 587.989 380.375 587.548 381.125Z" fill="#E8E8E8"/>
<path d="M552.639 382.758C553.081 387.216 554.14 391.496 555.773 395.645C556.082 396.439 557.362 396.086 557.053 395.292C555.464 391.276 554.405 387.083 553.963 382.758C553.875 381.92 552.551 381.876 552.639 382.758Z" fill="#E8E8E8"/>
<path d="M556.258 403.986C561.334 399.617 566.012 394.85 570.337 389.731C570.866 389.069 569.939 388.142 569.41 388.804C565.085 393.924 560.407 398.69 555.332 403.059C554.67 403.633 555.641 404.56 556.258 403.986Z" fill="#E8E8E8"/>
<path d="M576.427 383.023C576.029 387.48 576.118 391.894 576.691 396.307C576.78 397.145 578.104 397.145 578.015 396.307C577.442 391.894 577.353 387.436 577.751 383.023C577.839 382.14 576.515 382.14 576.427 383.023Z" fill="#E8E8E8"/>
<path d="M56.5939 239.858C50.1947 238.093 45.5608 231.87 45.6491 225.206C45.7374 217.748 52.4454 209.804 60.2568 209.981C68.4654 210.201 72.8786 220.175 72.0843 227.369C71.1575 235.931 62.64 241.315 54.4755 239.064C53.637 238.843 53.284 240.123 54.1225 240.344C60.6982 242.153 67.8034 239.594 71.334 233.68C74.8646 227.722 73.673 219.822 69.9218 214.218C66.1264 208.569 58.977 207.156 53.1074 210.555C47.5027 213.864 43.6632 220.705 44.4575 227.237C45.2519 233.68 49.974 239.373 56.2408 241.094C57.0793 241.359 57.4324 240.079 56.5939 239.858Z" fill="#E8E8E8"/>
<path d="M43.2662 273.355C44.6343 274.943 46.4437 276.003 48.562 276.223C49.6653 276.356 50.7686 276.223 51.8278 275.826C53.5048 275.252 54.8729 274.017 56.8147 274.37C59.242 274.767 61.0514 276.444 63.6111 276.135C66.3914 275.826 68.8187 273.84 71.7314 274.061C74.3793 274.281 76.6301 276.091 79.2339 276.62C81.5287 277.106 82.9851 276.267 84.9269 275.252C89.9139 272.604 95.6069 275.958 100.814 274.193C101.609 273.928 101.256 272.648 100.461 272.913C95.7834 274.458 90.8848 271.898 86.1626 273.266C83.5588 274.017 81.9259 275.958 78.9691 275.208C76.7183 274.634 74.7765 273.266 72.4817 272.869C70.3192 272.472 68.4215 273.222 66.4355 273.972C65.2881 274.414 64.0524 274.899 62.7726 274.899C61.1838 274.899 59.8598 274.017 58.4476 273.487C56.4175 272.737 54.9171 273.002 52.9752 273.884C49.7977 275.341 46.5761 275.296 44.1929 272.428C43.6634 271.766 42.6924 272.693 43.2662 273.355Z" fill="#E8E8E8"/>
<path d="M77.3802 261.836C80.8666 263.778 84.8827 260.909 88.325 262.719C89.6931 263.425 90.5757 264.572 92.2527 264.352C93.6208 264.175 94.68 263.116 95.7392 262.322C98.1223 260.468 100.064 260.909 102.668 261.968C104.61 262.763 106.463 263.248 108.537 263.204C113.215 263.116 117.849 261.086 122.483 262.63C123.278 262.895 123.631 261.615 122.836 261.351C118.864 260.027 114.893 261.174 110.877 261.66C108.493 261.969 106.243 261.924 103.992 261.042C102.138 260.336 100.285 259.276 98.2106 259.541C96.8425 259.718 95.8274 260.512 94.7683 261.351C93.8856 262.057 93.0471 262.939 91.8555 262.939C90.664 262.984 89.9579 262.057 88.9428 261.527C85.5005 259.629 81.3962 262.542 77.998 260.645C77.2919 260.247 76.63 261.395 77.3802 261.836Z" fill="#E8E8E8"/>
<path d="M468.965 234.298C471.613 233.592 473.51 233.592 475.849 235.136C476.997 235.886 478.188 236.46 479.557 236.725C481.984 237.166 484.499 236.593 486.838 235.975C489.707 235.18 492.62 234.121 495.621 234.121C498.798 234.121 501.402 236.328 504.624 236.063C510.626 235.533 514.377 229.576 520.82 230.282C526.425 230.899 531.986 234.43 537.502 231.738C538.252 231.385 537.59 230.238 536.84 230.591C531.103 233.371 524.88 228.693 518.967 228.914C516.275 229.002 513.98 230.149 511.685 231.473C508.904 233.15 505.859 235.445 502.373 234.607C500.784 234.254 499.416 233.371 497.827 233.018C496.592 232.753 495.356 232.753 494.12 232.885C491.384 233.15 488.78 234.077 486.176 234.783C483.131 235.577 479.954 236.151 477.085 234.43C475.894 233.68 474.834 232.797 473.422 232.532C471.789 232.223 470.156 232.665 468.612 233.062C467.817 233.238 468.126 234.518 468.965 234.298Z" fill="#E8E8E8"/>
<path d="M517.025 245.949C519.54 244.492 522.453 244.227 525.101 245.463C526.69 246.169 527.925 247.096 529.735 246.964C533.839 246.655 536.664 243.036 540.944 244.978C542.224 245.551 543.46 246.169 544.916 245.949C546.726 245.64 548.006 244.183 549.638 243.565C553.654 242.021 558.2 244.272 562.393 243.345C563.231 243.168 562.878 241.888 562.04 242.065C557.891 242.948 553.61 240.829 549.506 242.197C547.608 242.815 546.152 244.625 544.078 244.625C542.004 244.625 540.371 242.948 538.208 242.992C534.236 243.08 531.059 247.052 526.999 245.11C523.38 243.345 519.937 242.815 516.274 244.934C515.612 245.198 516.274 246.346 517.025 245.949Z" fill="#E8E8E8"/>
<path d="M482.646 311.882C485.47 310.999 487.456 311.705 490.016 312.809C491.428 313.382 492.752 313.515 494.253 313.25C496.106 312.853 497.783 311.97 499.593 311.485C502.329 310.779 503.873 312.279 506.256 313.206C509.787 314.574 512.656 312.059 515.921 311.264C520.07 310.249 523.865 313.206 528.058 312.588C528.896 312.456 528.543 311.176 527.705 311.308C523.645 311.926 519.982 309.013 515.877 309.94C513.935 310.382 512.258 311.441 510.361 312.014C507.58 312.853 505.992 311.352 503.564 310.382C500.254 309.102 497.342 311.22 494.164 311.926C491.869 312.456 490.325 311.308 488.251 310.602C486.265 309.94 484.234 310.028 482.293 310.646C481.454 310.867 481.807 312.147 482.646 311.882Z" fill="#E8E8E8"/>
<path opacity="0.22" d="M567.424 445.823C508.331 457.121 449.194 468.375 390.101 479.672C319.357 457.606 248.657 435.54 177.913 413.474C272.224 413.827 366.534 414.136 460.8 414.489C496.371 424.949 531.897 435.408 567.424 445.823Z" fill="#666666"/>
<path opacity="0.19" d="M498.754 429.141C448.929 441.101 399.06 453.061 349.234 465.021C293.01 447.853 236.741 430.686 180.517 413.474C256.777 407.075 333.082 400.676 409.342 394.277C439.132 405.928 468.921 417.534 498.754 429.141Z" fill="#666666"/>
<path d="M177.693 280.019C178.355 324.018 179.061 368.018 179.723 412.062C235.594 424.684 291.421 437.261 347.293 449.883C347.204 398.955 347.072 348.026 346.984 297.098C290.539 291.36 234.094 285.667 177.693 280.019Z" fill="white" stroke="#161616" stroke-width="2" stroke-miterlimit="10"/>
<path d="M470.289 268.412C470.068 316.957 469.847 365.503 469.627 414.048C428.981 426.008 388.291 437.923 347.645 449.883C347.513 398.381 347.381 346.923 347.248 295.421C388.247 286.462 429.29 277.459 470.289 268.412Z" fill="white" stroke="#161616" stroke-width="2" stroke-miterlimit="10"/>
<path d="M345.836 296.656C290.009 290.875 234.226 285.094 178.443 279.312C215.205 269.956 251.967 260.6 288.729 251.244C348.837 257.026 408.989 262.807 469.097 268.632C428.01 277.944 386.923 287.3 345.836 296.656Z" fill="white" stroke="#161616" stroke-width="2" stroke-miterlimit="10"/>
<path d="M386.703 260.733C372.36 259.762 358.061 258.791 343.718 257.82C315.473 268.147 287.229 278.474 259.028 288.801C258.763 335.625 258.499 382.449 258.19 429.273C270.856 432.319 283.522 435.32 296.187 438.365C295.658 389.863 295.084 341.406 294.555 292.905C325.271 282.225 355.987 271.457 386.703 260.733Z" fill="#161616" stroke="#161616" stroke-width="2" stroke-miterlimit="10"/>
<path d="M399.059 434.26C410.754 430.686 422.493 427.111 434.188 423.536C433.791 375.035 433.35 326.578 432.953 278.077C375.669 271.324 318.342 264.572 261.058 257.82C251.128 260.291 241.243 262.763 231.313 265.278C287.361 273.972 343.409 282.622 399.501 291.316C399.368 338.979 399.236 386.598 399.059 434.26Z" fill="#161616" stroke="#161616" stroke-width="2" stroke-miterlimit="10"/>
<path d="M402.016 194.976C406.077 196.653 406.739 207.156 404.532 215.365C396.059 246.831 341.202 259.585 338.599 254.775C337.495 252.701 346.94 248.773 366.799 229.09C388.689 207.377 396.676 192.813 402.016 194.976Z" fill="white" stroke="#161616" stroke-width="2" stroke-miterlimit="10"/>
<path d="M289.126 215.674C290.186 220.661 292.789 226.442 309.515 242.506C320.725 253.274 326.374 258.659 327.963 257.599C331.184 255.393 320.504 234.165 310.354 219.028C305.146 211.261 296.011 197.712 291.377 199.477C288.067 200.713 287.802 209.451 289.126 215.674Z" fill="white" stroke="#161616" stroke-width="2" stroke-miterlimit="10"/>
<path d="M331.228 276.047C337.712 276.047 342.968 270.494 342.968 263.646C342.968 256.797 337.712 251.244 331.228 251.244C324.745 251.244 319.489 256.797 319.489 263.646C319.489 270.494 324.745 276.047 331.228 276.047Z" fill="#161616" stroke="#161616" stroke-width="2" stroke-miterlimit="10"/>
<path d="M331.449 258.614C338.113 252.127 344.865 245.242 351.617 238.049C366.534 222.161 379.818 206.494 391.601 191.313C394.161 191.004 399.192 190.695 401.31 193.564C404.399 197.668 399.501 205.788 397.206 209.628C385.511 229.09 348.307 249.788 331.449 258.614Z" fill="#161616" stroke="#161616" stroke-width="2" stroke-miterlimit="10"/>
<path d="M291.818 198.815C293.451 197.315 298.526 200.36 301.527 202.169C326.418 217.13 329.463 252.524 329.948 258.967C309.648 232.753 287.714 202.655 291.818 198.815Z" fill="#161616" stroke="#161616" stroke-width="2" stroke-miterlimit="10"/>
<path d="M186.916 303.85C207.04 304.203 227.253 304.115 247.333 305.041C267.634 305.968 287.758 308.793 307.794 312.279C319.092 314.265 330.39 316.428 341.688 318.634C342.526 318.811 342.879 317.531 342.041 317.354C322.27 313.515 302.454 309.719 282.462 307.027C262.25 304.335 242.037 303.453 221.648 303.1C210.086 302.923 198.479 302.702 186.916 302.526C186.078 302.526 186.078 303.85 186.916 303.85Z" fill="#161616"/>
<path d="M358.37 317.972C392.175 307.822 426.642 299.922 461.551 294.362C462.389 294.229 462.036 292.949 461.198 293.082C426.333 298.642 391.866 306.542 358.017 316.692C357.222 316.913 357.575 318.193 358.37 317.972Z" fill="#161616"/>
<path d="M297.644 378.742C297.644 392.114 297.644 405.442 297.644 418.814C297.644 419.653 298.968 419.653 298.968 418.814C298.968 405.442 298.968 392.114 298.968 378.742C298.968 377.904 297.644 377.904 297.644 378.742Z" fill="#161616"/>
<path d="M302.013 410.826C302.013 417.49 302.013 424.198 302.013 430.862C302.013 431.701 303.337 431.701 303.337 430.862C303.337 424.198 303.337 417.49 303.337 410.826C303.337 409.944 302.013 409.944 302.013 410.826Z" fill="#161616"/>
<path d="M393.366 344.716C393.366 355.396 393.366 366.076 393.366 376.756C393.366 377.595 394.69 377.595 394.69 376.756C394.69 366.076 394.69 355.396 394.69 344.716C394.69 343.878 393.366 343.878 393.366 344.716Z" fill="#161616"/>
<path d="M395.75 389.157C395.75 396.351 395.75 403.589 395.75 410.782C395.75 411.621 397.073 411.621 397.073 410.782C397.073 403.589 397.073 396.351 397.073 389.157C397.073 388.319 395.75 388.319 395.75 389.157Z" fill="#161616"/>
<path d="M234.447 342.995C234.447 348.776 234.447 354.558 234.447 360.339C234.447 361.178 235.77 361.178 235.77 360.339C235.77 354.558 235.77 348.776 235.77 342.995C235.77 342.157 234.447 342.157 234.447 342.995Z" fill="#161616"/>
<path d="M230.695 365.017C230.695 369.695 230.695 374.373 230.695 379.051C230.695 379.89 232.019 379.89 232.019 379.051C232.019 374.373 232.019 369.695 232.019 365.017C232.019 364.179 230.695 364.179 230.695 365.017Z" fill="#161616"/>
<path opacity="0.21" d="M467.464 413.871C427.569 426.008 387.674 438.188 347.778 450.325C347.778 399.661 347.778 348.997 347.778 298.333C387.894 289.154 428.01 279.974 468.126 270.839C467.95 318.502 467.729 366.165 467.464 413.871Z" fill="#666666"/>
<path opacity="0.21" d="M470.112 414.445C429.467 425.566 388.865 436.688 348.219 447.809C347.955 403.456 347.69 359.147 347.381 314.795C365.343 331.256 383.349 347.717 401.31 364.223C424.083 356.676 446.899 349.13 469.671 341.583C469.848 365.856 469.98 390.172 470.112 414.445Z" fill="#666666"/>
<path opacity="0.14" d="M404.002 197.271C401.84 196.829 399.545 211.702 391.998 223.927C385.158 235.004 371.521 247.979 341.467 255.481C345.351 255.128 351.264 254.334 358.193 252.304C365.387 250.229 395.75 241.403 403.738 217.704C407.003 207.907 405.768 197.624 404.002 197.271Z" fill="#666666"/>
<path opacity="0.2" d="M295.04 291.802C307.794 300.452 320.593 309.102 333.347 317.752C321.608 315.721 309.913 313.735 298.173 311.705C298.659 335.272 300.601 361.707 305.102 390.393C308.059 409.237 311.722 426.758 315.782 442.822C309.56 441.101 303.293 439.38 297.07 437.614C296.408 389.025 295.746 340.391 295.04 291.802Z" fill="#666666"/>
<path opacity="0.13" d="M298.129 292.199C316.886 289.507 335.686 286.815 354.442 284.123C346.189 283.02 337.937 281.916 329.684 280.857C323.991 282.975 319.313 284.432 316.047 285.403C312.693 286.374 310.177 286.991 306.426 288.448C302.852 289.816 299.983 291.228 298.129 292.199Z" fill="#666666"/>
<path d="M450.915 404.118C449.679 405.266 448.488 406.457 447.252 407.605C449.37 415.769 451.489 423.933 453.607 432.098C455.284 431.259 457.005 430.465 458.682 429.627C456.122 421.109 453.519 412.592 450.915 404.118Z" fill="#161616" stroke="#161616" stroke-width="3" stroke-miterlimit="10"/>
<path d="M453.342 400.279C452.107 399.926 450.915 399.573 449.679 399.219C449.459 394.983 449.194 390.746 448.973 386.509C456.167 383.906 463.404 381.302 470.598 378.654C471.216 378.83 471.878 379.007 472.496 379.183C466.141 386.201 459.741 393.262 453.342 400.279Z" fill="#161616" stroke="#161616" stroke-width="3" stroke-miterlimit="10"/>
<path d="M453.122 386.509C453.298 391.187 453.519 395.821 453.695 400.499C459.83 398.734 465.92 397.013 472.054 395.248C472.143 389.996 472.231 384.788 472.363 379.537C465.92 381.876 459.521 384.17 453.122 386.509Z" fill="white" stroke="#161616" stroke-width="3" stroke-miterlimit="10"/>
<path d="M451.091 403.986C458.682 402.044 466.229 400.102 473.819 398.16C473.555 400.411 473.422 402.971 473.51 405.751C473.819 413.077 475.761 419.079 477.571 423.227C471.26 425.346 464.949 427.508 458.638 429.627C456.122 421.065 453.607 412.547 451.091 403.986Z" fill="white" stroke="#161616" stroke-width="3" stroke-miterlimit="10"/>
<path d="M458.903 398.911C458.859 399.705 458.991 400.499 459.3 401.25C459.609 402.044 460.889 401.691 460.58 400.897C460.315 400.235 460.227 399.573 460.227 398.911C460.271 398.072 458.947 398.072 458.903 398.911Z" fill="#161616"/>
<path d="M462.963 398.204C462.875 398.911 463.007 399.617 463.272 400.235C463.404 400.543 463.713 400.808 464.066 400.676C464.375 400.588 464.684 400.19 464.508 399.881C464.287 399.308 464.199 398.778 464.243 398.204C464.287 397.851 463.934 397.542 463.581 397.542C463.228 397.542 462.963 397.851 462.963 398.204Z" fill="#161616"/>
<path d="M457.358 430.686C458.285 435.011 462.433 438.938 465.832 441.586C469.583 444.499 473.996 446.22 478.674 446.75C479.513 446.838 479.513 445.514 478.674 445.426C474.128 444.896 469.759 443.131 466.185 440.174C463.184 437.703 459.477 434.172 458.638 430.333C458.462 429.494 457.182 429.847 457.358 430.686Z" fill="#161616"/>
<path d="M460.448 429.538C464.773 436.114 470.51 442.204 478.63 443.528C479.469 443.661 479.822 442.381 478.983 442.248C471.172 440.969 465.743 435.187 461.551 428.876C461.11 428.126 459.962 428.788 460.448 429.538Z" fill="#161616"/>
<path d="M479.336 442.734C479.645 441.366 480.086 440.042 480.748 438.762C481.013 438.276 481.41 437.791 481.587 437.306C481.19 436.511 481.057 436.555 481.278 437.394C481.366 437.835 481.41 438.276 481.454 438.762C481.543 439.998 481.454 441.189 481.322 442.425C481.278 442.954 481.322 444.764 480.969 445.161C480.616 445.558 479.822 445.514 479.38 445.558C478.542 445.602 478.542 446.926 479.38 446.882C480.263 446.838 481.19 447.235 481.896 446.485C482.602 445.691 482.469 444.146 482.602 443.175C482.823 441.498 482.911 439.777 482.734 438.056C482.646 437.261 482.69 436.158 481.94 435.761C481.763 435.673 481.454 435.629 481.278 435.761C479.468 437.173 478.542 440.351 478.056 442.425C477.836 443.219 479.115 443.572 479.336 442.734Z" fill="#161616"/>
<path d="M470.642 426.008C474.746 430.995 481.101 433.378 487.456 432.539C488.295 432.407 487.942 431.171 487.103 431.259C481.19 432.054 475.32 429.671 471.569 425.081C471.039 424.419 470.112 425.346 470.642 426.008Z" fill="#161616"/>
<path d="M467.111 427.685C472.054 433.025 479.071 435.982 486.353 435.761C487.191 435.717 487.191 434.393 486.353 434.437C479.38 434.658 472.76 431.877 468.038 426.758C467.509 426.096 466.538 427.067 467.111 427.685Z" fill="#161616"/>
<path d="M488.427 431.701C488.648 430.862 488.913 430.024 489.222 429.229C489.31 428.965 490.104 426.449 490.413 426.449C490.193 426.273 489.972 426.14 489.795 425.964C490.237 427.288 489.928 429.141 489.795 430.465C489.619 432.098 489.266 433.687 488.825 435.275C488.604 436.114 489.884 436.467 490.104 435.629C490.59 433.951 490.943 432.23 491.119 430.465C491.252 429.009 491.561 427.023 491.075 425.611C490.987 425.346 490.722 425.125 490.457 425.125C488.471 425.257 487.589 429.847 487.192 431.348C486.927 432.186 488.207 432.539 488.427 431.701Z" fill="#161616"/>
<path d="M485.868 435.673C486.927 436.114 488.03 436.291 489.178 436.07C490.016 435.937 489.663 434.658 488.824 434.79C488.074 434.922 487.28 434.834 486.53 434.525C485.779 434.172 485.073 435.32 485.868 435.673Z" fill="#161616"/>
<path d="M461.727 436.114C461.904 435.055 462.831 434.393 463.89 434.525C464.728 434.613 464.728 433.289 463.89 433.201C462.301 433.025 460.712 434.172 460.448 435.761C460.271 436.599 461.551 436.952 461.727 436.114Z" fill="#161616"/>
<path d="M465.611 440.042C465.788 439.159 466.449 438.541 467.288 438.365C468.127 438.188 467.773 436.908 466.935 437.085C465.655 437.35 464.596 438.365 464.331 439.645C464.155 440.527 465.39 440.88 465.611 440.042Z" fill="#161616"/>
<path d="M469.715 443.175C470.024 442.248 470.774 441.586 471.745 441.41C472.584 441.233 472.231 439.954 471.392 440.13C469.98 440.395 468.877 441.454 468.435 442.822C468.17 443.616 469.45 443.969 469.715 443.175Z" fill="#161616"/>
<path d="M474.04 441.63C473.025 442.337 472.54 443.484 472.76 444.72C472.893 445.558 474.172 445.205 474.04 444.367C473.952 443.749 474.217 443.131 474.702 442.778C475.408 442.292 474.746 441.145 474.04 441.63Z" fill="#161616"/>
<path d="M480.881 437.835C480.042 440.086 480.483 442.999 480.483 445.382C480.483 446.22 481.807 446.22 481.807 445.382C481.807 443.131 481.366 440.307 482.161 438.188C482.425 437.394 481.145 437.041 480.881 437.835Z" fill="#161616"/>
<path d="M473.775 431.215C473.775 430.509 474.217 429.891 474.923 429.715C475.761 429.494 475.408 428.214 474.57 428.435C473.334 428.744 472.451 429.935 472.451 431.215C472.451 432.054 473.775 432.054 473.775 431.215Z" fill="#161616"/>
<path d="M470.201 428.876C470.554 428.17 471.216 427.729 472.01 427.596C472.363 427.552 472.54 427.111 472.451 426.802C472.363 426.405 472.01 426.272 471.657 426.361C470.554 426.537 469.583 427.243 469.053 428.258C468.7 428.965 469.848 429.627 470.201 428.876Z" fill="#161616"/>
<path d="M480.881 433.819C480.881 433.466 481.057 433.157 481.41 432.981C482.161 432.583 481.499 431.436 480.748 431.833C479.998 432.23 479.557 433.025 479.601 433.819C479.557 434.658 480.881 434.658 480.881 433.819Z" fill="#161616"/>
<path d="M456.343 392.379C457.226 392.379 458.109 392.379 458.991 392.379C459.83 392.379 459.83 391.055 458.991 391.055C458.109 391.055 457.226 391.055 456.343 391.055C455.505 391.055 455.505 392.379 456.343 392.379Z" fill="#161616"/>
<path d="M466.891 389.555C467.553 388.893 468.215 388.231 468.877 387.569C469.495 386.951 468.524 386.024 467.95 386.642C467.288 387.304 466.626 387.966 465.964 388.628C465.39 389.201 466.317 390.128 466.891 389.555Z" fill="#161616"/>
<path d="M461.904 394.321C463.139 394.718 464.463 394.144 465.125 393.085C465.567 392.335 464.419 391.673 463.978 392.423C463.625 393.041 462.919 393.262 462.257 393.085C461.418 392.82 461.109 394.1 461.904 394.321Z" fill="#161616"/>
<path d="M470.907 408.09C468.612 408.752 466.317 409.414 464.022 410.076C463.713 409.458 463.316 408.576 463.14 407.428C462.919 406.148 463.007 405.089 463.14 404.383C465.611 403.898 468.082 403.412 470.554 402.927C470.333 403.589 470.112 404.736 470.333 406.104C470.465 406.943 470.686 407.605 470.907 408.09Z" fill="#EC615B"/>
<path opacity="0.24" d="M457.711 385.053C457.844 389.466 458.02 393.924 458.153 398.337C462.698 397.145 467.244 395.998 471.789 394.806C471.833 389.952 471.878 385.141 471.878 380.287C467.2 381.92 462.433 383.464 457.711 385.053Z" fill="#666666"/>
<path opacity="0.24" d="M457.711 403.191C458.329 406.192 459.123 409.37 460.006 412.636C461.462 417.887 463.139 422.698 464.861 427.023C468.832 425.655 472.76 424.331 476.732 422.963C475.761 420.888 474.834 418.417 474.084 415.592C472.363 408.884 472.584 403.015 473.113 398.999C467.994 400.411 462.875 401.823 457.711 403.191Z" fill="#666666"/>
<path d="M226.194 51.9877C226.37 55.5624 226.679 60.77 227.253 66.9926C228.665 82.483 229.504 95.855 233.078 106.447C235.77 114.435 242.125 129.395 258.013 144.445C257.086 147.49 255.586 151.329 253.07 155.478C249.981 160.553 246.45 164.172 243.802 166.511C230.739 153.756 223.899 141.046 220.28 132.838C211.409 112.625 211.189 94.2222 211.012 80.5853C210.88 69.5082 211.807 60.1963 212.778 53.5323C211.189 52.0318 208.762 49.6928 205.716 46.9125C200.156 41.8814 198.037 40.2485 198.391 39.5424C198.699 38.9246 200.994 38.9687 210.527 42.3669C202.318 31.8193 198.655 26.1704 199.538 25.3319C200.332 24.5816 204.746 27.7591 212.822 34.8644C206.82 19.9477 205.849 15.4904 206.643 15.0932C207.438 14.696 210.527 18.2707 219.177 32.6137C217.809 21.051 218.25 18.4472 218.956 18.2707C220.192 18.0059 222.928 25.1995 223.722 27.3619C225.576 32.3047 226.591 36.5414 227.121 39.41C234.579 33.5404 236.079 34.07 236.432 34.4231C237.712 35.5705 234.314 41.396 233.476 42.8523C231.048 47.089 228.268 50.09 226.194 51.9877Z" fill="white" stroke="#161616" stroke-width="2" stroke-miterlimit="10"/>
<path opacity="0.15" d="M207.04 15.7993C206.29 16.1965 209.071 23.6107 212.689 29.9216C213.704 31.6428 214.322 32.4813 219.662 40.5133C221.825 43.7791 223.59 46.427 224.782 48.1923C223.237 54.5473 221.56 63.2855 221.119 73.789C220.81 81.1149 220.324 95.6344 225.444 113.022C231.004 131.911 240.669 145.548 247.73 153.801C251.129 150.755 254.527 147.71 257.925 144.665C243.317 130.631 236.874 116.553 233.917 108.565C229.724 97.179 228.577 86.2342 227.562 76.7017C226.459 66.7719 226.326 58.3868 226.415 52.2525C228.665 50.4872 232.019 47.3979 234.491 42.5875C235.02 41.5284 237.933 35.9236 236.477 34.6879C234.932 33.3639 229.327 37.6006 226.988 39.41C221.825 22.3309 219.751 18.4914 218.912 18.6679C218.427 18.7562 218.294 20.1684 218.118 22.4191C217.765 27.0089 218.559 30.7601 219.309 33.0991C219.265 33.1874 219.265 33.1874 207.04 15.7993Z" fill="#666666"/>
<path opacity="0.2" d="M235.285 38.7039C233.476 39.5424 229.636 41.6166 226.591 46.0299C223.811 50.0459 223.06 53.9295 222.84 55.9155C222.222 62.094 222.09 69.1551 222.884 76.79C225.664 103.975 238.418 123.923 246.671 134.559C240.978 125.159 233.652 110.728 229.46 91.8832C225.841 75.7308 225.708 61.6968 226.37 51.5905C228.092 49.7811 230.033 47.4862 231.887 44.6618C233.299 42.5434 234.402 40.5133 235.285 38.7039Z" fill="#666666"/>
<path d="M301.439 142.194C298.394 143.606 295.834 144.577 294.334 147.357C291.377 152.786 295.305 160.023 296.276 161.833C298.747 166.422 302.278 169.247 304.97 170.924C313.531 167.217 326.33 160.156 337.672 147.137C352.324 130.322 356.56 112.493 358.767 102.916C361.724 89.8531 361.856 78.6876 361.459 71.0969C363.621 67.3457 366.755 62.0498 370.771 55.6948C374.301 50.0458 376.243 47.089 375.493 46.2946C374.919 45.7209 372.713 46.2063 364.901 51.8111C367.726 40.8222 368.652 35.1292 367.637 34.732C366.667 34.3789 363.93 38.8363 359.429 48.1482C360.091 35.4381 359.782 28.9948 358.502 28.8183C357.178 28.5976 354.751 35.5264 351.22 49.5163C349.146 39.8513 347.646 35.085 346.675 35.1733C345.527 35.3057 345.174 42.1462 345.527 55.6506C338.863 51.9877 335.068 50.6637 334.141 51.767C332.861 53.3116 337.142 59.4019 346.984 70.126C347.204 74.2744 347.16 80.8942 345.571 88.7056C344.777 92.6334 339.128 120.26 319.886 131.205C313.664 134.78 307.883 139.193 301.439 142.194Z" fill="white" stroke="#161616" stroke-width="2" stroke-miterlimit="10"/>
<path opacity="0.16" d="M367.637 34.6437C366.931 34.423 365.74 38.4832 360.885 45.4561C359.738 47.1331 359.208 47.7509 358.767 49.0749C357.575 52.9144 359.693 55.3417 359.605 58.5633C359.517 60.8582 358.325 64.0798 352.853 67.9635C353.78 71.2734 354.795 75.9955 355.104 81.6886C356.295 104.417 344.38 121.054 340.231 127.983C336.303 134.559 324.564 151.594 296.011 162.053C296.231 163.157 297.026 166.202 299.762 168.629C301.439 170.129 303.204 170.791 304.263 171.056C310.177 168.629 318.386 164.48 326.859 157.508C340.231 146.475 346.719 134.426 349.808 128.513C362.297 104.77 362.297 81.6003 361.459 70.0377C363.974 66.0658 366.181 62.5793 367.902 59.8431C374.081 50.0458 376.022 46.9124 375.272 46.1622C374.875 45.765 373.551 45.9415 369.27 48.8542C367.814 49.7369 366.357 50.6637 364.901 51.5463C368.034 38.3508 368.255 34.8202 367.637 34.6437Z" fill="#666666"/>
<path opacity="0.28" d="M369.447 57.3276C359.296 63.5503 356.913 68.8461 356.693 72.6415C356.604 74.142 356.869 74.5392 357.178 78.1139C357.178 78.1139 356.913 84.6454 357.001 92.8099C357.134 104.461 352.323 115.008 346.454 127.807C343.365 134.515 338.775 143.341 331.979 153.006C336.877 148.152 342.129 141.929 346.851 134.206C361.944 109.271 361.944 83.8511 361.062 71.6265C363.842 66.816 366.622 62.0498 369.447 57.3276Z" fill="#666666"/>
<path opacity="0.11" d="M334.009 52.5172C343.85 57.5483 346.631 58.3868 346.94 57.9455C347.204 57.5042 345.571 55.783 344.071 54.8121C343.453 54.4149 342.615 54.0177 340.938 53.3116C337.937 52.0318 337.142 51.9435 336.568 51.9435C335.421 51.8994 334.538 52.2525 334.009 52.5172Z" fill="#666666"/>
<path d="M202.76 330.726C202.407 332.933 204.437 335.537 208.409 340.788C210.527 343.569 212.469 345.687 213.749 347.055C211.763 350.63 208.276 358.309 209.997 367.488C210.527 370.445 211.454 375.344 214.102 375.962C218.691 377.065 225.532 364.576 228.224 358.662C231.269 351.998 232.593 345.952 233.255 341.671C228.665 335.493 224.031 329.314 219.442 323.136C210.306 323.93 203.333 326.843 202.76 330.726Z" fill="#161616" stroke="#161616" stroke-width="2" stroke-miterlimit="10"/>
<path d="M256.777 236.416C259.69 258.35 255.189 267 250.113 270.707C245.524 274.061 240.978 272.957 230.122 276.091C220.633 278.871 213.351 282.843 208.541 285.932C209.159 290.345 210.439 295.994 212.998 302.129C217.058 311.838 222.707 318.678 226.723 322.783C225.929 324.46 222.619 330.903 214.896 334.169C208.629 336.861 202.98 335.89 200.906 335.449C193.845 328.917 182.988 316.781 178.09 298.907C176.104 291.625 173.676 282.225 177.251 271.722C179.502 265.146 182.988 261.439 190.005 254.025C192.3 251.597 202.318 241.226 220.059 231.782C230.43 226.266 235.682 223.485 241.905 224.765C249.804 226.486 254.703 233.106 256.777 236.416Z" fill="#FF9BC5"/>
<path opacity="0.21" d="M246.45 235.092C239.301 239.417 229.371 245.728 217.897 253.981C198.038 268.279 188.946 275.914 185.681 283.858C182.503 291.581 184.754 305.703 213.44 333.727C214.984 333.418 217.412 332.668 219.839 330.991C223.767 328.299 225.576 324.68 226.238 323.047C223.016 319.737 219.177 315.059 215.735 308.881C210.836 300.055 208.894 291.802 208.056 286.197C217.058 279.886 224.958 277.282 230.695 276.091C239.257 274.281 246.186 274.987 251.482 269.515C254.174 266.735 255.233 263.557 256.204 260.644C258.94 252.48 257.925 245.242 257.086 241.491C253.556 239.417 249.981 237.254 246.45 235.092Z" fill="#666666"/>
<path opacity="0.16" d="M243.803 241.315C242.876 245.375 241.375 249.92 239.125 254.687C231.269 271.104 218.338 280.195 211.145 284.432C216.926 280.592 222.045 278.562 225.664 277.415C226.9 277.017 228.18 276.664 241.728 273.134C247.907 271.501 249.672 271.06 251.526 269.294C252.629 268.235 254.438 266.073 255.851 258.217C256.557 254.201 257.263 248.332 256.777 241.05C252.408 241.138 248.083 241.226 243.803 241.315Z" fill="#666666"/>
<path opacity="0.17" d="M208.1 284.961C206.908 290.566 205.496 301.334 209.203 313.912C211.542 321.856 215.205 327.858 218.029 331.786C219.353 331.035 221.207 329.755 223.016 327.725C224.561 325.96 225.532 324.239 226.15 322.915C222.928 319.605 219.044 314.927 215.646 308.704C210.527 299.348 208.762 290.61 208.1 284.961Z" fill="#666666"/>
<path d="M233.52 328.52C236.432 332.624 239.389 336.684 242.302 340.788C240.713 344.981 236.697 357.382 242.611 367.18C243.626 368.857 245.435 371.858 247.951 371.902C253.291 371.99 257.219 358.75 258.013 356.191C259.337 351.822 260.705 345.069 259.911 336.375C257.925 323.621 248.657 316.736 242.302 318.149C236.477 319.429 233.829 327.637 233.52 328.52Z" fill="#161616" stroke="#161616" stroke-width="2" stroke-miterlimit="10"/>
<path d="M288.111 234.96C291.863 258.614 284.228 266.823 281.447 269.25C278.844 271.501 276.328 272.384 262.25 277.062C256.998 278.827 249.275 281.387 239.831 284.476C240.449 288.889 241.728 294.538 244.288 300.672C248.348 310.381 253.997 317.222 258.013 321.326C257.219 323.003 253.909 329.447 246.186 332.712C239.919 335.404 234.27 334.433 232.196 333.992C225.135 327.461 214.278 315.324 209.38 297.451C207.394 290.169 204.966 280.769 208.541 270.265C210.792 263.69 214.278 259.983 221.295 252.568C223.59 250.141 233.608 239.77 251.349 230.326C261.72 224.809 266.972 222.029 273.195 223.309C281.183 224.986 286.037 231.65 288.111 234.96Z" fill="#FF9BC5"/>
<path opacity="0.21" d="M259.072 233.989C257.66 238.358 254.88 245.419 249.584 252.877C236.432 271.325 221.604 272.428 217.367 282.755C214.19 290.478 216.44 304.6 245.126 332.624C246.848 331.918 249.054 330.859 251.349 329.138C254.659 326.666 256.733 323.886 257.969 321.944C254.703 318.546 250.908 313.868 247.465 307.778C242.39 298.731 240.272 290.301 239.301 284.476C249.319 281.078 257.395 278.562 262.779 276.885C273.547 273.619 279.064 272.207 283.345 266.779C285.993 263.381 287.096 259.806 287.802 257.467C290.009 250.273 289.391 244.007 288.773 240.388C278.887 238.314 269.002 236.151 259.072 233.989Z" fill="#666666"/>
<path opacity="0.16" d="M275.489 240.167C274.563 244.271 273.106 248.817 270.811 253.539C261.72 272.119 245.524 281.21 237.933 284.785C245.612 282.358 252.541 280.151 258.587 278.209C258.587 278.209 261.72 277.194 269.399 274.458C279.196 270.927 280.873 270.045 282.55 268.368C285.507 265.367 286.302 262.013 287.493 257.114C288.376 253.363 289.347 247.449 288.42 239.947C284.139 240.035 279.814 240.123 275.489 240.167Z" fill="#666666"/>
<path opacity="0.17" d="M239.786 283.858C238.595 289.463 237.183 300.231 240.89 312.809C243.229 320.753 246.892 326.754 249.716 330.682C251.04 329.932 252.894 328.652 254.703 326.622C256.248 324.857 257.219 323.136 257.836 321.812C254.615 318.502 250.731 313.824 247.333 307.601C242.214 298.245 240.448 289.507 239.786 283.858Z" fill="#666666"/>
<path d="M256.866 141.532C248.304 147.887 244.244 157.64 243.317 159.935C242.743 161.303 241.111 165.628 240.36 171.586C239.478 178.382 240.184 184.075 240.89 187.827C241.199 193.078 241.022 201.772 237.359 211.658C234.755 218.763 231.225 224.059 228.445 227.634C234.093 231.959 244.729 238.976 259.867 242.241C272.003 244.889 282.33 244.095 288.817 243.036C292.613 232.312 296.32 220.087 299.365 206.494C302.234 193.696 304.131 181.78 305.323 171.012C303.425 170.085 297.864 167.173 295.04 160.729C294.863 160.332 290.803 150.756 295.305 145.018C297.997 141.62 301.792 142.017 301.792 140.958C301.792 138.134 274.872 128.204 256.866 141.532Z" fill="white" stroke="#161616" stroke-width="2" stroke-miterlimit="10"/>
<path opacity="0.13" d="M268.649 136.898C267.766 138.487 267.457 142.723 267.457 145.107C267.457 147.622 267.722 149.74 268.031 151.241C268.031 155.169 272.268 174.587 269.311 193.034C265.913 214.218 254.483 230.546 248.922 237.652C253.379 239.726 260.043 242.197 268.472 243.301C276.858 244.36 283.875 243.654 288.729 242.815C291.907 233.724 294.908 223.706 297.555 212.805C301.174 197.889 303.425 183.987 304.793 171.586C302.498 170.085 295.261 164.966 293.495 156.096C293.01 153.536 292.127 149.211 294.731 145.327C297.07 141.797 300.821 140.693 302.145 140.384C284.934 133.941 271.032 132.573 268.649 136.898Z" fill="#666666"/>
<path opacity="0.17" d="M293.584 159.052C294.157 166.775 294.025 176.308 291.907 186.944C286.39 214.879 270.679 233.547 262.206 242.197C265.736 243.124 270.459 244.007 276.063 244.007C281.094 244.051 285.375 243.389 288.685 242.639C294.819 226.31 300.248 207.289 303.293 185.841C303.999 180.898 304.573 176.087 304.97 171.365C303.028 170.218 300.38 168.32 297.82 165.407C295.835 163.112 294.466 160.862 293.584 159.052Z" fill="#666666"/>
<path opacity="0.14" d="M263.486 143.253C265.692 147.401 269.929 150.005 274.474 150.093C281.624 150.27 287.405 144.136 286.567 141.973C285.993 140.473 281.624 139.59 263.486 143.253Z" fill="#666666"/>
<path d="M251.305 85.837C249.893 85.7046 248.569 93.2953 245.524 105.034C240.758 123.526 237.889 128.292 240.89 134.647C241.42 135.75 243.538 140.164 248.172 141.929C253.026 143.782 260.043 142.547 263.441 138.398C271.165 128.954 255.895 109.271 252.629 89.2352C252.453 88.3525 252.1 85.9252 251.305 85.837Z" fill="#5CC6B3"/>
<path d="M263.927 131.999C264.324 133.632 264.765 136.148 264.368 139.149C264.147 141.002 263.662 142.547 263.221 143.783C265.118 144.312 268.031 144.886 271.518 144.709C275.622 144.489 278.843 143.297 280.741 142.414C280.079 140.958 279.461 139.369 278.888 137.56C277.873 134.427 277.343 131.514 277.034 128.998C276.416 129.749 274.342 131.955 270.811 132.705C267.502 133.412 264.854 132.396 263.927 131.999Z" fill="white" stroke="#161616" stroke-width="2" stroke-miterlimit="10"/>
<path d="M251.702 90.9122C247.333 102.387 247.642 117.965 256.38 129.086C257.748 130.852 259.072 132.132 259.955 132.926C266.045 133.5 270.723 132.529 273.548 131.69C275.534 131.117 277.564 130.499 279.726 129.042C284.537 125.821 286.523 120.966 287.273 118.583C288.685 119.73 289.788 119.907 290.539 119.863C294.51 119.598 298.615 112.228 296.187 107.285C294.864 104.593 292.039 103.49 290.892 103.137C290.009 99.6503 286.787 88.8821 276.637 82.836C274.033 81.2914 266.222 76.6575 259.558 79.835C255.145 81.9092 253.423 86.4107 251.702 90.9122Z" fill="white" stroke="#161616" stroke-width="2" stroke-miterlimit="10"/>
<path d="M265.118 134.647C264.986 134.691 264.81 134.735 264.677 134.824C263.971 135.089 264.103 136.059 264.854 136.104C268.517 136.457 273.062 134.029 276.019 132.043C276.725 131.558 276.063 130.411 275.357 130.896C272.577 132.75 268.296 135.089 264.854 134.78C264.898 135.221 264.986 135.662 265.03 136.059C265.163 136.015 265.339 135.971 265.472 135.883C266.266 135.618 265.913 134.338 265.118 134.647Z" fill="#161616"/>
<path d="M265.251 135.265C268.075 134.868 270.856 134.118 273.504 133.058C274.298 132.749 273.945 131.47 273.151 131.779C270.459 132.838 267.722 133.588 264.898 133.985C264.059 134.118 264.412 135.397 265.251 135.265Z" fill="#161616"/>
<path d="M265.427 134.559C266.398 134.647 267.413 134.603 268.384 134.338C269.223 134.118 268.87 132.838 268.031 133.058C267.193 133.279 266.31 133.323 265.427 133.235C264.589 133.147 264.589 134.471 265.427 134.559Z" fill="#161616"/>
<path d="M273.592 111.963C274.43 111.963 274.43 110.639 273.592 110.639C272.753 110.639 272.753 111.963 273.592 111.963Z" fill="#161616"/>
<path d="M277.696 111.301C277.696 111.257 277.696 111.213 277.696 111.213C277.696 110.86 277.387 110.551 277.034 110.551C276.681 110.551 276.372 110.86 276.372 111.213C276.372 111.257 276.372 111.301 276.372 111.301C276.372 111.654 276.681 111.963 277.034 111.963C277.387 111.919 277.696 111.654 277.696 111.301Z" fill="#161616"/>
<path d="M275.622 114.523C276.461 114.523 276.461 113.199 275.622 113.199C274.784 113.199 274.784 114.523 275.622 114.523Z" fill="#161616"/>
<path d="M252.982 108.962C253.821 108.962 253.821 107.638 252.982 107.638C252.144 107.638 252.144 108.962 252.982 108.962Z" fill="#161616"/>
<path d="M256.116 107.991C256.954 107.991 256.954 106.667 256.116 106.667C255.277 106.667 255.233 107.991 256.116 107.991Z" fill="#161616"/>
<path d="M255.365 111.081C256.204 111.081 256.204 109.757 255.365 109.757C254.482 109.757 254.482 111.081 255.365 111.081Z" fill="#161616"/>
<path d="M249.451 99.2532C248.569 98.0616 246.406 94.7958 246.495 90.3385C246.539 87.2492 247.598 84.9985 248.172 83.8069C250.158 79.7468 253.159 77.5402 255.63 75.819C257.925 74.1861 262.206 71.1851 268.296 70.6114C276.372 69.817 282.506 73.7889 286.743 76.5693C294.908 81.9092 298.615 88.838 299.409 90.3385C300.777 92.9864 301.483 95.2813 302.587 98.7236C303.778 102.519 303.778 103.578 305.764 112.316C307.706 120.922 307.971 121.231 307.794 123.129C307.265 129.616 303.072 133.985 302.41 134.691C296.496 140.693 288.817 140.384 286.214 140.296C282.683 140.164 281.182 139.193 280.609 138.796C277.122 136.28 276.902 131.558 276.902 130.587C278.27 129.793 280.079 128.557 281.756 126.659C285.022 122.996 286.037 118.98 286.39 116.994C289.788 118.009 293.186 116.685 294.599 114.214C296.585 110.595 293.804 105.343 290.671 104.902C290.185 104.814 288.861 104.77 287.14 106.226C285.728 102.96 283.213 98.2381 278.755 93.5601C273.283 87.7788 267.413 84.822 263.883 83.3215C261.897 84.16 258.94 85.7487 256.071 88.5291C251.835 92.501 250.158 96.9583 249.451 99.2532Z" fill="#5CC6B3"/>
<path opacity="0.14" d="M275.49 90.1178C277.299 93.0305 280.123 98.5912 279.991 105.829C279.726 122.864 263.353 132.396 262.338 132.926C263.397 133.103 273.724 134.735 280.918 127.409C284.713 123.526 285.861 119.024 286.214 116.95C286.964 117.215 288.641 117.612 290.583 117.038C291.068 116.906 293.893 116.068 294.819 113.42C295.261 112.228 295.128 111.125 295.04 110.507C294.996 109.757 294.819 107.991 293.495 106.447C293.01 105.917 292.26 105.034 291.024 104.77C289.038 104.372 287.493 105.829 287.273 106.005C286.258 103.578 284.713 100.577 282.418 97.3996C279.947 94.2662 277.52 91.839 275.49 90.1178Z" fill="#666666"/>
<path opacity="0.18" d="M274.121 144.136C272.797 140.384 271.473 136.589 270.194 132.838C272.356 132.132 274.563 131.381 276.725 130.675C277.917 134.559 279.064 138.487 280.256 142.37C278.226 142.988 276.196 143.562 274.121 144.136Z" fill="#666666"/>
<path opacity="0.21" d="M286.699 115.008C285.596 117.48 283.654 121.099 280.167 124.541C274.43 130.234 267.899 132.087 264.942 132.749C266.222 132.838 273.945 133.367 279.682 128.601C282.815 125.997 284.448 122.687 284.448 122.687C285.287 120.966 285.772 119.201 285.993 118.451C286.346 117.083 286.567 115.891 286.699 115.008Z" fill="#666666"/>
<path opacity="0.18" d="M277.034 143.606C275.754 139.722 274.519 135.795 273.239 131.911C274.342 131.558 275.445 131.161 276.549 130.808C277.74 134.691 278.976 138.575 280.168 142.459C279.152 142.812 278.093 143.209 277.034 143.606Z" fill="#666666"/>
<path d="M263.927 99.3855C262.735 104.108 261.764 108.874 260.97 113.684C260.838 114.479 260.573 115.406 261.411 115.847C262.382 116.376 264.721 115.626 265.736 115.406C266.575 115.229 266.222 113.949 265.383 114.126C264.677 114.302 263.397 114.699 262.735 114.611C261.853 114.479 262.073 114.655 262.338 113.64C262.691 112.14 262.868 110.507 263.177 109.006C263.795 105.917 264.456 102.828 265.207 99.7827C265.427 98.9442 264.148 98.5912 263.927 99.3855Z" fill="#161616"/>
<path d="M252.85 103.887C254.571 101.901 257.572 101.857 259.337 103.755C259.778 104.24 260.484 103.534 260.043 103.049C257.925 100.754 254.218 100.798 252.143 103.181C251.746 103.666 252.452 104.373 252.85 103.887Z" fill="#161616"/>
<path d="M270.988 104.373C273.327 102.872 276.46 103.534 277.961 105.917C278.314 106.447 279.152 105.961 278.799 105.432C277.034 102.607 273.283 101.725 270.458 103.534C269.929 103.843 270.458 104.726 270.988 104.373Z" fill="#161616"/>
<path d="M255.586 96.2522C257.175 95.4137 258.94 95.4578 260.485 96.3405C261.058 96.6494 261.544 95.8109 260.97 95.5019C259.117 94.4428 256.954 94.3987 255.056 95.4137C254.527 95.6785 255.012 96.5611 255.586 96.2522Z" fill="#161616"/>
<path d="M271.518 96.517C273.68 96.1639 275.754 96.7376 277.475 98.0175C278.005 98.4146 278.49 97.532 277.961 97.179C275.975 95.7226 273.636 95.193 271.253 95.5461C270.635 95.6785 270.9 96.6052 271.518 96.517Z" fill="#161616"/>
<path d="M257.44 121.01C262.294 122.511 267.413 121.408 271.253 118.098C271.738 117.7 271.032 116.994 270.547 117.392C266.972 120.481 262.206 121.452 257.704 120.039C257.086 119.819 256.822 120.79 257.44 121.01Z" fill="#161616"/>
</svg>
