<svg width="13" height="13" viewBox="0 0 13 13" fill="none" xmlns="http://www.w3.org/2000/svg">
<path d="M6.5 0C2.9159 0 0 2.9159 0 6.5C0 10.0841 2.9159 13 6.5 13C10.0841 13 13 10.0841 13 6.5C13 2.9159 10.0841 0 6.5 0ZM6.5 2.665C6.66712 2.665 6.8305 2.71456 6.96946 2.80741C7.10842 2.90026 7.21672 3.03223 7.28068 3.18663C7.34463 3.34104 7.36137 3.51094 7.32876 3.67485C7.29616 3.83876 7.21568 3.98933 7.0975 4.10751C6.97933 4.22568 6.82877 4.30616 6.66485 4.33876C6.50094 4.37137 6.33104 4.35463 6.17663 4.29068C6.02223 4.22672 5.89026 4.11842 5.79741 3.97946C5.70456 3.8405 5.655 3.67712 5.655 3.51C5.655 3.28589 5.74403 3.07096 5.90249 2.91249C6.06096 2.75403 6.27589 2.665 6.5 2.665ZM8.06 10.01H5.2C5.06209 10.01 4.92982 9.95521 4.8323 9.8577C4.73479 9.76018 4.68 9.62791 4.68 9.49C4.68 9.35209 4.73479 9.21982 4.8323 9.1223C4.92982 9.02479 5.06209 8.97 5.2 8.97H6.11V6.11H5.59C5.45209 6.11 5.31982 6.05521 5.2223 5.9577C5.12479 5.86018 5.07 5.72791 5.07 5.59C5.07 5.45209 5.12479 5.31982 5.2223 5.2223C5.31982 5.12479 5.45209 5.07 5.59 5.07H6.63C6.76791 5.07 6.90018 5.12479 6.9977 5.2223C7.09521 5.31982 7.15 5.45209 7.15 5.59V8.97H8.06C8.19791 8.97 8.33018 9.02479 8.4277 9.1223C8.52521 9.21982 8.58 9.35209 8.58 9.49C8.58 9.62791 8.52521 9.76018 8.4277 9.8577C8.33018 9.95521 8.19791 10.01 8.06 10.01Z" fill="white"/>
</svg>
